G04 #@! TF.FileFunction,Copper,L2,Bot,Signal*
%FSLAX46Y46*%
G04 Gerber Fmt 4.6, Leading zero omitted, Abs format (unit mm)*
G04 Created by KiCad (PCBNEW 4.0.2-stable) date 08.07.2018 23:17:36*
%MOMM*%
G01*
G04 APERTURE LIST*
%ADD10C,0.100000*%
%ADD11C,4.400000*%
%ADD12C,5.200000*%
%ADD13C,6.400000*%
%ADD14C,1.300000*%
%ADD15R,1.300000X1.300000*%
%ADD16R,1.500000X1.500000*%
%ADD17C,1.500000*%
%ADD18O,1.500000X1.500000*%
%ADD19C,2.300000*%
%ADD20C,0.700000*%
%ADD21C,0.300000*%
%ADD22C,1.300000*%
%ADD23C,1.000000*%
%ADD24C,0.200000*%
G04 APERTURE END LIST*
D10*
D11*
X125400000Y-85300000D03*
X125400000Y-73200000D03*
D12*
X146355000Y-100155000D03*
X104445000Y-58245000D03*
D13*
X150800000Y-28400000D03*
X100000000Y-28400000D03*
X100000000Y-130000000D03*
X150800000Y-130000000D03*
D14*
X115000000Y-46200000D03*
D15*
X118500000Y-46200000D03*
D14*
X132300000Y-46200000D03*
D15*
X135800000Y-46200000D03*
X116000000Y-35300000D03*
D14*
X111000000Y-35300000D03*
D15*
X139800000Y-35300000D03*
D14*
X134800000Y-35300000D03*
D15*
X122900000Y-41400000D03*
D14*
X127900000Y-41400000D03*
D16*
X122860000Y-32150000D03*
D17*
X125400000Y-32150000D03*
X127940000Y-32150000D03*
D16*
X103810000Y-106630000D03*
D17*
X103810000Y-109170000D03*
X103810000Y-111710000D03*
D16*
X103810000Y-46815000D03*
D17*
X103810000Y-49355000D03*
X103810000Y-51895000D03*
D16*
X121400000Y-126000000D03*
D18*
X123940000Y-126000000D03*
D16*
X126860000Y-126000000D03*
D18*
X129400000Y-126000000D03*
D19*
X146355000Y-112180000D03*
X146355000Y-107180000D03*
X146355000Y-51220000D03*
X146355000Y-46220000D03*
D11*
X125400000Y-79200000D03*
D20*
X137000000Y-124000000D03*
X142000000Y-119000000D03*
X147000000Y-119000000D03*
X137000000Y-119000000D03*
X132000000Y-119000000D03*
X130000000Y-116000000D03*
X130000000Y-111000000D03*
X130000000Y-106000000D03*
X130000000Y-101000000D03*
X138000000Y-116000000D03*
X138000000Y-111000000D03*
X138000000Y-106000000D03*
X138000000Y-101000000D03*
X122000000Y-129000000D03*
X127000000Y-129000000D03*
X132000000Y-129000000D03*
X137000000Y-129000000D03*
X142000000Y-129000000D03*
X146000000Y-125000000D03*
X149000000Y-121000000D03*
X149000000Y-116000000D03*
X105000000Y-120000000D03*
X110000000Y-123000000D03*
X101000000Y-119000000D03*
X101000000Y-124000000D03*
X105000000Y-124000000D03*
X105000000Y-129000000D03*
X110000000Y-129000000D03*
X115000000Y-129000000D03*
X110000000Y-120000000D03*
X105000000Y-116000000D03*
X110000000Y-116000000D03*
X115000000Y-116000000D03*
X120000000Y-116000000D03*
X125000000Y-116000000D03*
X125000000Y-111000000D03*
X120000000Y-111000000D03*
X115000000Y-111000000D03*
X120200000Y-101000000D03*
X125000000Y-106000000D03*
X125000000Y-101000000D03*
X115000000Y-101000000D03*
X120000000Y-106000000D03*
X115000000Y-106000000D03*
X120000000Y-93000000D03*
X125000000Y-93000000D03*
X115000000Y-96000000D03*
X120000000Y-96000000D03*
X125000000Y-96000000D03*
X129000000Y-93000000D03*
X132200000Y-89900000D03*
X141500000Y-72200000D03*
X140000000Y-81000000D03*
X127000000Y-67500000D03*
X133400000Y-71000000D03*
X131600000Y-68700000D03*
X123500000Y-69000000D03*
X124000000Y-60500000D03*
X129000000Y-56500000D03*
X139000000Y-57000000D03*
X136000000Y-57000000D03*
X136000000Y-51000000D03*
X140000000Y-46000000D03*
X140000000Y-40000000D03*
X136000000Y-40000000D03*
X144000000Y-34000000D03*
X144000000Y-39000000D03*
X144000000Y-54000000D03*
X144000000Y-59000000D03*
X144000000Y-64000000D03*
X144000000Y-69000000D03*
X144000000Y-74000000D03*
X144000000Y-79000000D03*
X144000000Y-84000000D03*
X144000000Y-89000000D03*
X144000000Y-94000000D03*
X149000000Y-94000000D03*
X149000000Y-89000000D03*
X149000000Y-84000000D03*
X149000000Y-79000000D03*
X149000000Y-74000000D03*
X149000000Y-69000000D03*
X149000000Y-64000000D03*
X149000000Y-59000000D03*
X149000000Y-54000000D03*
X149000000Y-49000000D03*
X149000000Y-39000000D03*
X149000000Y-34000000D03*
X145000000Y-30000000D03*
X140000000Y-30000000D03*
X135000000Y-29400000D03*
X130000000Y-29400000D03*
X125000000Y-29400000D03*
X120000000Y-29400000D03*
X115000000Y-29400000D03*
X125400000Y-39700000D03*
X125400000Y-44700000D03*
X125400000Y-51700000D03*
X125400000Y-35000000D03*
X124400000Y-54650000D03*
X119800000Y-59400000D03*
X118400000Y-60800000D03*
X114250000Y-62800000D03*
X114250000Y-74700000D03*
X114250000Y-68250000D03*
X115000000Y-53000000D03*
X115000000Y-61000000D03*
X115000000Y-43000000D03*
X111000000Y-43000000D03*
X111000000Y-39000000D03*
X105000000Y-30000000D03*
X111000000Y-30000000D03*
X102000000Y-35000000D03*
X102000000Y-43000000D03*
X102000000Y-39000000D03*
X112100000Y-78600000D03*
X104000000Y-81000000D03*
X102000000Y-78000000D03*
X102000000Y-73000000D03*
X102000000Y-68000000D03*
X102000000Y-63000000D03*
X109000000Y-63000000D03*
X109000000Y-78000000D03*
X109000000Y-73000000D03*
X109000000Y-68000000D03*
X109000000Y-103500000D03*
X103000000Y-103500000D03*
X103000000Y-99000000D03*
X109000000Y-99000000D03*
X109000000Y-94000000D03*
X103000000Y-94000000D03*
X103000000Y-89000000D03*
X109000000Y-89000000D03*
X109000000Y-84000000D03*
X105000000Y-84000000D03*
X109000000Y-81000000D03*
X111300000Y-80700000D03*
X100700000Y-84200000D03*
X100700000Y-89200000D03*
X100700000Y-94200000D03*
X100700000Y-99200000D03*
X100700000Y-104200000D03*
X100700000Y-109200000D03*
X100700000Y-114200000D03*
X135000000Y-63200000D03*
X135000000Y-95200000D03*
X116450000Y-91550000D03*
X122800000Y-53700000D03*
X116450000Y-64600000D03*
X129850000Y-90000000D03*
X119500000Y-91550000D03*
X128000000Y-53700000D03*
X119500000Y-64600000D03*
X135000000Y-71750000D03*
X135000000Y-85100000D03*
X130850000Y-97200000D03*
X132300000Y-58650000D03*
X134850000Y-77700000D03*
X134850000Y-80150000D03*
D21*
X142000000Y-119000000D02*
X147000000Y-119000000D01*
X137000000Y-119000000D02*
X132000000Y-119000000D01*
X130000000Y-116000000D02*
X130000000Y-111000000D01*
X130000000Y-106000000D02*
X130000000Y-101000000D01*
X137000000Y-129000000D02*
X137000000Y-124000000D01*
X138000000Y-111000000D02*
X138000000Y-116000000D01*
X138000000Y-101000000D02*
X138000000Y-106000000D01*
X146355000Y-112180000D02*
X149000000Y-114825000D01*
X132000000Y-129000000D02*
X127000000Y-129000000D01*
X142000000Y-129000000D02*
X137000000Y-129000000D01*
X149000000Y-122000000D02*
X146000000Y-125000000D01*
X149000000Y-121000000D02*
X149000000Y-122000000D01*
X149000000Y-114825000D02*
X149000000Y-116000000D01*
X108000000Y-123000000D02*
X105000000Y-120000000D01*
X110000000Y-123000000D02*
X108000000Y-123000000D01*
X101000000Y-124000000D02*
X101000000Y-119000000D01*
X105000000Y-129000000D02*
X105000000Y-124000000D01*
X115000000Y-129000000D02*
X110000000Y-129000000D01*
X110000000Y-116000000D02*
X105000000Y-116000000D01*
X120000000Y-116000000D02*
X115000000Y-116000000D01*
X125000000Y-111000000D02*
X125000000Y-116000000D01*
X115000000Y-111000000D02*
X120000000Y-111000000D01*
X109000000Y-105700000D02*
X117800000Y-105700000D01*
X120200000Y-103300000D02*
X120200000Y-101000000D01*
X117800000Y-105700000D02*
X120200000Y-103300000D01*
X125000000Y-106000000D02*
X120000000Y-106000000D01*
X120000000Y-101000000D02*
X125000000Y-101000000D01*
X115000000Y-101000000D02*
X120000000Y-101000000D01*
X125000000Y-93000000D02*
X120000000Y-93000000D01*
X115000000Y-96000000D02*
X120000000Y-96000000D01*
X125000000Y-96000000D02*
X126000000Y-96000000D01*
X126000000Y-96000000D02*
X129000000Y-93000000D01*
X125400000Y-85300000D02*
X127600000Y-87500000D01*
X129800000Y-87500000D02*
X132200000Y-89900000D01*
X127600000Y-87500000D02*
X129800000Y-87500000D01*
X144000000Y-84000000D02*
X143000000Y-84000000D01*
X143000000Y-84000000D02*
X140000000Y-81000000D01*
X127000000Y-67500000D02*
X128200000Y-68700000D01*
X128200000Y-68700000D02*
X131600000Y-68700000D01*
X127000000Y-67500000D02*
X124000000Y-64500000D01*
X125500000Y-69000000D02*
X127000000Y-67500000D01*
X125400000Y-73200000D02*
X125400000Y-70900000D01*
X125400000Y-70900000D02*
X123500000Y-69000000D01*
X123500000Y-69000000D02*
X125500000Y-69000000D01*
X124000000Y-64500000D02*
X124000000Y-60500000D01*
X136000000Y-57000000D02*
X129500000Y-57000000D01*
X129500000Y-57000000D02*
X129000000Y-56500000D01*
X136000000Y-51000000D02*
X136000000Y-57000000D01*
X135800000Y-46200000D02*
X135800000Y-40200000D01*
X140000000Y-40000000D02*
X140000000Y-46000000D01*
X135800000Y-40200000D02*
X136000000Y-40000000D01*
X149000000Y-39000000D02*
X144000000Y-39000000D01*
X144000000Y-64000000D02*
X144000000Y-59000000D01*
X144000000Y-74000000D02*
X144000000Y-69000000D01*
X144000000Y-84000000D02*
X144000000Y-79000000D01*
X144000000Y-94000000D02*
X144000000Y-89000000D01*
X149000000Y-89000000D02*
X149000000Y-94000000D01*
X149000000Y-79000000D02*
X149000000Y-84000000D01*
X149000000Y-69000000D02*
X149000000Y-74000000D01*
X149000000Y-59000000D02*
X149000000Y-64000000D01*
X149000000Y-49000000D02*
X149000000Y-54000000D01*
X149000000Y-34000000D02*
X149000000Y-39000000D01*
X140000000Y-30000000D02*
X145000000Y-30000000D01*
X111000000Y-35300000D02*
X111000000Y-31000000D01*
X130000000Y-29400000D02*
X135000000Y-29400000D01*
X120000000Y-29400000D02*
X125000000Y-29400000D01*
X112600000Y-29400000D02*
X115000000Y-29400000D01*
X111000000Y-31000000D02*
X112600000Y-29400000D01*
X125400000Y-44700000D02*
X125400000Y-51700000D01*
X125400000Y-35000000D02*
X125400000Y-39700000D01*
X118400000Y-60800000D02*
X119800000Y-59400000D01*
X114250000Y-62800000D02*
X114250000Y-68250000D01*
X115000000Y-61000000D02*
X115000000Y-53000000D01*
X115000000Y-46200000D02*
X115000000Y-43000000D01*
X111000000Y-35300000D02*
X111000000Y-39000000D01*
X111000000Y-35300000D02*
X111000000Y-30000000D01*
X102000000Y-35000000D02*
X102000000Y-43000000D01*
X109000000Y-78000000D02*
X109600000Y-78600000D01*
X109600000Y-78600000D02*
X112100000Y-78600000D01*
X102000000Y-73000000D02*
X102000000Y-78000000D01*
X102000000Y-63000000D02*
X102000000Y-68000000D01*
X109000000Y-63000000D02*
X109000000Y-78000000D01*
X109000000Y-73000000D02*
X109000000Y-68000000D01*
X109000000Y-103500000D02*
X103000000Y-103500000D01*
X103000000Y-99000000D02*
X109000000Y-99000000D01*
X109000000Y-94000000D02*
X103000000Y-94000000D01*
X103000000Y-89000000D02*
X109000000Y-89000000D01*
X109000000Y-84000000D02*
X105000000Y-84000000D01*
X109000000Y-81000000D02*
X109300000Y-80700000D01*
X109300000Y-80700000D02*
X111300000Y-80700000D01*
X100700000Y-109200000D02*
X100700000Y-104200000D01*
X100700000Y-89200000D02*
X100700000Y-84200000D01*
X100700000Y-99200000D02*
X100700000Y-94200000D01*
X102980000Y-110000000D02*
X101500000Y-110000000D01*
X101500000Y-110000000D02*
X100700000Y-109200000D01*
X102980000Y-110000000D02*
X103810000Y-109170000D01*
D22*
X116450000Y-64600000D02*
X116450000Y-91550000D01*
X122800000Y-53700000D02*
X116450000Y-60050000D01*
X116450000Y-60050000D02*
X116450000Y-64600000D01*
X128300000Y-91550000D02*
X119500000Y-91550000D01*
X128300000Y-91550000D02*
X129850000Y-90000000D01*
X119500000Y-64600000D02*
X119500000Y-91550000D01*
X128000000Y-53700000D02*
X119500000Y-62200000D01*
X119500000Y-62200000D02*
X119500000Y-64600000D01*
D23*
X135000000Y-85100000D02*
X132850000Y-82950000D01*
X132850000Y-73900000D02*
X132850000Y-82950000D01*
X132850000Y-73900000D02*
X135000000Y-71750000D01*
X137150000Y-87650000D02*
X130850000Y-93950000D01*
X134850000Y-81950000D02*
X137150000Y-84250000D01*
X134850000Y-80150000D02*
X134850000Y-81950000D01*
X137150000Y-84250000D02*
X137150000Y-87650000D01*
X130850000Y-93950000D02*
X130850000Y-97200000D01*
X134850000Y-77700000D02*
X134850000Y-74850000D01*
X132300000Y-66000000D02*
X132300000Y-58650000D01*
X136900000Y-70600000D02*
X132300000Y-66000000D01*
X136900000Y-72800000D02*
X136900000Y-70600000D01*
X134850000Y-74850000D02*
X136900000Y-72800000D01*
X134850000Y-77700000D02*
X134850000Y-80150000D01*
D24*
G36*
X147199377Y-29112943D02*
X147746289Y-30436572D01*
X148758101Y-31450152D01*
X150080774Y-31999374D01*
X150425000Y-31999674D01*
X150425000Y-126399672D01*
X150087057Y-126399377D01*
X148763428Y-126946289D01*
X147749848Y-127958101D01*
X147200626Y-129280774D01*
X147200326Y-129625000D01*
X103600328Y-129625000D01*
X103600623Y-129287057D01*
X103053711Y-127963428D01*
X102041899Y-126949848D01*
X100719226Y-126400626D01*
X100375000Y-126400326D01*
X100375000Y-125250000D01*
X120242164Y-125250000D01*
X120242164Y-126750000D01*
X120270056Y-126898231D01*
X120357660Y-127034372D01*
X120491329Y-127125704D01*
X120650000Y-127157836D01*
X122150000Y-127157836D01*
X122298231Y-127129944D01*
X122434372Y-127042340D01*
X122525704Y-126908671D01*
X122557836Y-126750000D01*
X122557836Y-126326518D01*
X122837313Y-126326518D01*
X123046203Y-126723643D01*
X123391165Y-127010600D01*
X123613484Y-127102672D01*
X123790000Y-127039230D01*
X123790000Y-126150000D01*
X124090000Y-126150000D01*
X124090000Y-127039230D01*
X124266516Y-127102672D01*
X124488835Y-127010600D01*
X124833797Y-126723643D01*
X125042687Y-126326518D01*
X124980190Y-126150000D01*
X124090000Y-126150000D01*
X123790000Y-126150000D01*
X122899810Y-126150000D01*
X122837313Y-126326518D01*
X122557836Y-126326518D01*
X122557836Y-125673482D01*
X122837313Y-125673482D01*
X122899810Y-125850000D01*
X123790000Y-125850000D01*
X123790000Y-124960770D01*
X124090000Y-124960770D01*
X124090000Y-125850000D01*
X124980190Y-125850000D01*
X125042687Y-125673482D01*
X124833797Y-125276357D01*
X124802113Y-125250000D01*
X125702164Y-125250000D01*
X125702164Y-126750000D01*
X125730056Y-126898231D01*
X125817660Y-127034372D01*
X125951329Y-127125704D01*
X126110000Y-127157836D01*
X127610000Y-127157836D01*
X127758231Y-127129944D01*
X127894372Y-127042340D01*
X127985704Y-126908671D01*
X128017836Y-126750000D01*
X128017836Y-126326518D01*
X128297313Y-126326518D01*
X128506203Y-126723643D01*
X128851165Y-127010600D01*
X129073484Y-127102672D01*
X129250000Y-127039230D01*
X129250000Y-126150000D01*
X129550000Y-126150000D01*
X129550000Y-127039230D01*
X129726516Y-127102672D01*
X129948835Y-127010600D01*
X130293797Y-126723643D01*
X130502687Y-126326518D01*
X130440190Y-126150000D01*
X129550000Y-126150000D01*
X129250000Y-126150000D01*
X128359810Y-126150000D01*
X128297313Y-126326518D01*
X128017836Y-126326518D01*
X128017836Y-125673482D01*
X128297313Y-125673482D01*
X128359810Y-125850000D01*
X129250000Y-125850000D01*
X129250000Y-124960770D01*
X129550000Y-124960770D01*
X129550000Y-125850000D01*
X130440190Y-125850000D01*
X130502687Y-125673482D01*
X130293797Y-125276357D01*
X129948835Y-124989400D01*
X129726516Y-124897328D01*
X129550000Y-124960770D01*
X129250000Y-124960770D01*
X129073484Y-124897328D01*
X128851165Y-124989400D01*
X128506203Y-125276357D01*
X128297313Y-125673482D01*
X128017836Y-125673482D01*
X128017836Y-125250000D01*
X127989944Y-125101769D01*
X127902340Y-124965628D01*
X127768671Y-124874296D01*
X127610000Y-124842164D01*
X126110000Y-124842164D01*
X125961769Y-124870056D01*
X125825628Y-124957660D01*
X125734296Y-125091329D01*
X125702164Y-125250000D01*
X124802113Y-125250000D01*
X124488835Y-124989400D01*
X124266516Y-124897328D01*
X124090000Y-124960770D01*
X123790000Y-124960770D01*
X123613484Y-124897328D01*
X123391165Y-124989400D01*
X123046203Y-125276357D01*
X122837313Y-125673482D01*
X122557836Y-125673482D01*
X122557836Y-125250000D01*
X122529944Y-125101769D01*
X122442340Y-124965628D01*
X122308671Y-124874296D01*
X122150000Y-124842164D01*
X120650000Y-124842164D01*
X120501769Y-124870056D01*
X120365628Y-124957660D01*
X120274296Y-125091329D01*
X120242164Y-125250000D01*
X100375000Y-125250000D01*
X100375000Y-113327455D01*
X145419677Y-113327455D01*
X145551631Y-113540939D01*
X146133592Y-113744779D01*
X146749261Y-113710396D01*
X147158369Y-113540939D01*
X147290323Y-113327455D01*
X146355000Y-112392132D01*
X145419677Y-113327455D01*
X100375000Y-113327455D01*
X100375000Y-111937746D01*
X102659801Y-111937746D01*
X102834509Y-112360572D01*
X103157727Y-112684354D01*
X103580247Y-112859800D01*
X104037746Y-112860199D01*
X104460572Y-112685491D01*
X104784354Y-112362273D01*
X104951977Y-111958592D01*
X144790221Y-111958592D01*
X144824604Y-112574261D01*
X144994061Y-112983369D01*
X145207545Y-113115323D01*
X146142868Y-112180000D01*
X146567132Y-112180000D01*
X147502455Y-113115323D01*
X147715939Y-112983369D01*
X147919779Y-112401408D01*
X147885396Y-111785739D01*
X147715939Y-111376631D01*
X147502455Y-111244677D01*
X146567132Y-112180000D01*
X146142868Y-112180000D01*
X145207545Y-111244677D01*
X144994061Y-111376631D01*
X144790221Y-111958592D01*
X104951977Y-111958592D01*
X104959800Y-111939753D01*
X104960199Y-111482254D01*
X104785491Y-111059428D01*
X104758655Y-111032545D01*
X145419677Y-111032545D01*
X146355000Y-111967868D01*
X147290323Y-111032545D01*
X147158369Y-110819061D01*
X146576408Y-110615221D01*
X145960739Y-110649604D01*
X145551631Y-110819061D01*
X145419677Y-111032545D01*
X104758655Y-111032545D01*
X104462273Y-110735646D01*
X104039753Y-110560200D01*
X103582254Y-110559801D01*
X103159428Y-110734509D01*
X102835646Y-111057727D01*
X102660200Y-111480247D01*
X102659801Y-111937746D01*
X100375000Y-111937746D01*
X100375000Y-110027006D01*
X103165126Y-110027006D01*
X103247819Y-110198970D01*
X103684382Y-110335781D01*
X104140070Y-110295114D01*
X104372181Y-110198970D01*
X104454874Y-110027006D01*
X103810000Y-109382132D01*
X103165126Y-110027006D01*
X100375000Y-110027006D01*
X100375000Y-109044382D01*
X102644219Y-109044382D01*
X102684886Y-109500070D01*
X102781030Y-109732181D01*
X102952994Y-109814874D01*
X103597868Y-109170000D01*
X104022132Y-109170000D01*
X104667006Y-109814874D01*
X104838970Y-109732181D01*
X104975781Y-109295618D01*
X104935114Y-108839930D01*
X104838970Y-108607819D01*
X104667006Y-108525126D01*
X104022132Y-109170000D01*
X103597868Y-109170000D01*
X102952994Y-108525126D01*
X102781030Y-108607819D01*
X102644219Y-109044382D01*
X100375000Y-109044382D01*
X100375000Y-108312994D01*
X103165126Y-108312994D01*
X103810000Y-108957868D01*
X104454874Y-108312994D01*
X104372181Y-108141030D01*
X103935618Y-108004219D01*
X103479930Y-108044886D01*
X103247819Y-108141030D01*
X103165126Y-108312994D01*
X100375000Y-108312994D01*
X100375000Y-105880000D01*
X102652164Y-105880000D01*
X102652164Y-107380000D01*
X102680056Y-107528231D01*
X102767660Y-107664372D01*
X102901329Y-107755704D01*
X103060000Y-107787836D01*
X104560000Y-107787836D01*
X104708231Y-107759944D01*
X104844372Y-107672340D01*
X104935704Y-107538671D01*
X104946175Y-107486961D01*
X144804732Y-107486961D01*
X145040208Y-108056857D01*
X145475849Y-108493260D01*
X146045333Y-108729730D01*
X146661961Y-108730268D01*
X147231857Y-108494792D01*
X147668260Y-108059151D01*
X147904730Y-107489667D01*
X147905268Y-106873039D01*
X147669792Y-106303143D01*
X147234151Y-105866740D01*
X146664667Y-105630270D01*
X146048039Y-105629732D01*
X145478143Y-105865208D01*
X145041740Y-106300849D01*
X144805270Y-106870333D01*
X144804732Y-107486961D01*
X104946175Y-107486961D01*
X104967836Y-107380000D01*
X104967836Y-105880000D01*
X104939944Y-105731769D01*
X104852340Y-105595628D01*
X104718671Y-105504296D01*
X104560000Y-105472164D01*
X103060000Y-105472164D01*
X102911769Y-105500056D01*
X102775628Y-105587660D01*
X102684296Y-105721329D01*
X102652164Y-105880000D01*
X100375000Y-105880000D01*
X100375000Y-102350544D01*
X144371588Y-102350544D01*
X144680614Y-102714790D01*
X145787658Y-103160698D01*
X146981074Y-103149015D01*
X148029386Y-102714790D01*
X148338412Y-102350544D01*
X146355000Y-100367132D01*
X144371588Y-102350544D01*
X100375000Y-102350544D01*
X100375000Y-99587658D01*
X143349302Y-99587658D01*
X143360985Y-100781074D01*
X143795210Y-101829386D01*
X144159456Y-102138412D01*
X146142868Y-100155000D01*
X146567132Y-100155000D01*
X148550544Y-102138412D01*
X148914790Y-101829386D01*
X149360698Y-100722342D01*
X149349015Y-99528926D01*
X148914790Y-98480614D01*
X148550544Y-98171588D01*
X146567132Y-100155000D01*
X146142868Y-100155000D01*
X144159456Y-98171588D01*
X143795210Y-98480614D01*
X143349302Y-99587658D01*
X100375000Y-99587658D01*
X100375000Y-93950000D01*
X129950000Y-93950000D01*
X129950000Y-97200000D01*
X130018508Y-97544415D01*
X130213604Y-97836396D01*
X130505585Y-98031492D01*
X130850000Y-98100000D01*
X131194415Y-98031492D01*
X131302224Y-97959456D01*
X144371588Y-97959456D01*
X146355000Y-99942868D01*
X148338412Y-97959456D01*
X148029386Y-97595210D01*
X146922342Y-97149302D01*
X145728926Y-97160985D01*
X144680614Y-97595210D01*
X144371588Y-97959456D01*
X131302224Y-97959456D01*
X131486396Y-97836396D01*
X131681492Y-97544415D01*
X131750000Y-97200000D01*
X131750000Y-94322792D01*
X137786396Y-88286396D01*
X137981492Y-87994416D01*
X138050000Y-87650000D01*
X138050000Y-84250000D01*
X137981492Y-83905585D01*
X137981492Y-83905584D01*
X137786396Y-83613604D01*
X135750000Y-81577208D01*
X135750000Y-75222792D01*
X137536396Y-73436396D01*
X137731492Y-73144415D01*
X137800000Y-72800000D01*
X137800000Y-70600000D01*
X137731492Y-70255585D01*
X137731492Y-70255584D01*
X137536396Y-69963604D01*
X133200000Y-65627208D01*
X133200000Y-58650000D01*
X133131492Y-58305585D01*
X132936396Y-58013604D01*
X132644415Y-57818508D01*
X132300000Y-57750000D01*
X131955585Y-57818508D01*
X131663604Y-58013604D01*
X131468508Y-58305585D01*
X131400000Y-58650000D01*
X131400000Y-66000000D01*
X131468508Y-66344415D01*
X131663604Y-66636396D01*
X136000000Y-70972792D01*
X136000000Y-72427208D01*
X134213604Y-74213604D01*
X134018508Y-74505585D01*
X133950000Y-74850000D01*
X133950000Y-81950000D01*
X134018508Y-82294415D01*
X134213604Y-82586396D01*
X136250000Y-84622792D01*
X136250000Y-87277208D01*
X130213604Y-93313604D01*
X130018508Y-93605585D01*
X129950000Y-93950000D01*
X100375000Y-93950000D01*
X100375000Y-60440544D01*
X102461588Y-60440544D01*
X102770614Y-60804790D01*
X103877658Y-61250698D01*
X105071074Y-61239015D01*
X106119386Y-60804790D01*
X106428412Y-60440544D01*
X104445000Y-58457132D01*
X102461588Y-60440544D01*
X100375000Y-60440544D01*
X100375000Y-57677658D01*
X101439302Y-57677658D01*
X101450985Y-58871074D01*
X101885210Y-59919386D01*
X102249456Y-60228412D01*
X104232868Y-58245000D01*
X104657132Y-58245000D01*
X106640544Y-60228412D01*
X106850836Y-60050000D01*
X115400000Y-60050000D01*
X115400000Y-91550000D01*
X115479926Y-91951818D01*
X115707538Y-92292462D01*
X116048182Y-92520074D01*
X116450000Y-92600000D01*
X116851818Y-92520074D01*
X117192462Y-92292462D01*
X117420074Y-91951818D01*
X117500000Y-91550000D01*
X117500000Y-62200000D01*
X118450000Y-62200000D01*
X118450000Y-91550000D01*
X118529926Y-91951818D01*
X118757538Y-92292462D01*
X119098182Y-92520074D01*
X119500000Y-92600000D01*
X128300000Y-92600000D01*
X128701818Y-92520074D01*
X129042462Y-92292462D01*
X130592462Y-90742462D01*
X130820074Y-90401818D01*
X130900000Y-90000000D01*
X130820074Y-89598182D01*
X130592462Y-89257538D01*
X130251818Y-89029926D01*
X129850000Y-88950000D01*
X129448182Y-89029926D01*
X129107538Y-89257538D01*
X127865076Y-90500000D01*
X120550000Y-90500000D01*
X120550000Y-87206730D01*
X123705402Y-87206730D01*
X123965667Y-87529385D01*
X124927998Y-87908579D01*
X125962187Y-87890640D01*
X126834333Y-87529385D01*
X127094598Y-87206730D01*
X125400000Y-85512132D01*
X123705402Y-87206730D01*
X120550000Y-87206730D01*
X120550000Y-84827998D01*
X122791421Y-84827998D01*
X122809360Y-85862187D01*
X123170615Y-86734333D01*
X123493270Y-86994598D01*
X125187868Y-85300000D01*
X125612132Y-85300000D01*
X127306730Y-86994598D01*
X127629385Y-86734333D01*
X128008579Y-85772002D01*
X127990640Y-84737813D01*
X127629385Y-83865667D01*
X127306730Y-83605402D01*
X125612132Y-85300000D01*
X125187868Y-85300000D01*
X123493270Y-83605402D01*
X123170615Y-83865667D01*
X122791421Y-84827998D01*
X120550000Y-84827998D01*
X120550000Y-83393270D01*
X123705402Y-83393270D01*
X125400000Y-85087868D01*
X127094598Y-83393270D01*
X126834333Y-83070615D01*
X125872002Y-82691421D01*
X124837813Y-82709360D01*
X123965667Y-83070615D01*
X123705402Y-83393270D01*
X120550000Y-83393270D01*
X120550000Y-81106730D01*
X123705402Y-81106730D01*
X123965667Y-81429385D01*
X124927998Y-81808579D01*
X125962187Y-81790640D01*
X126834333Y-81429385D01*
X127094598Y-81106730D01*
X125400000Y-79412132D01*
X123705402Y-81106730D01*
X120550000Y-81106730D01*
X120550000Y-78727998D01*
X122791421Y-78727998D01*
X122809360Y-79762187D01*
X123170615Y-80634333D01*
X123493270Y-80894598D01*
X125187868Y-79200000D01*
X125612132Y-79200000D01*
X127306730Y-80894598D01*
X127629385Y-80634333D01*
X128008579Y-79672002D01*
X127990640Y-78637813D01*
X127629385Y-77765667D01*
X127306730Y-77505402D01*
X125612132Y-79200000D01*
X125187868Y-79200000D01*
X123493270Y-77505402D01*
X123170615Y-77765667D01*
X122791421Y-78727998D01*
X120550000Y-78727998D01*
X120550000Y-77293270D01*
X123705402Y-77293270D01*
X125400000Y-78987868D01*
X127094598Y-77293270D01*
X126834333Y-76970615D01*
X125872002Y-76591421D01*
X124837813Y-76609360D01*
X123965667Y-76970615D01*
X123705402Y-77293270D01*
X120550000Y-77293270D01*
X120550000Y-75106730D01*
X123705402Y-75106730D01*
X123965667Y-75429385D01*
X124927998Y-75808579D01*
X125962187Y-75790640D01*
X126834333Y-75429385D01*
X127094598Y-75106730D01*
X125400000Y-73412132D01*
X123705402Y-75106730D01*
X120550000Y-75106730D01*
X120550000Y-72727998D01*
X122791421Y-72727998D01*
X122809360Y-73762187D01*
X123170615Y-74634333D01*
X123493270Y-74894598D01*
X125187868Y-73200000D01*
X125612132Y-73200000D01*
X127306730Y-74894598D01*
X127629385Y-74634333D01*
X127918739Y-73900000D01*
X131950000Y-73900000D01*
X131950000Y-82950000D01*
X132018508Y-83294415D01*
X132213604Y-83586396D01*
X134363604Y-85736396D01*
X134655584Y-85931492D01*
X135000000Y-86000000D01*
X135344415Y-85931492D01*
X135636396Y-85736396D01*
X135831492Y-85444415D01*
X135900000Y-85100000D01*
X135831492Y-84755584D01*
X135636396Y-84463604D01*
X133750000Y-82577208D01*
X133750000Y-74272792D01*
X135636396Y-72386396D01*
X135831492Y-72094416D01*
X135900000Y-71750000D01*
X135831492Y-71405585D01*
X135636396Y-71113604D01*
X135344415Y-70918508D01*
X135000000Y-70850000D01*
X134655584Y-70918508D01*
X134363604Y-71113604D01*
X132213604Y-73263604D01*
X132018508Y-73555585D01*
X131950000Y-73900000D01*
X127918739Y-73900000D01*
X128008579Y-73672002D01*
X127990640Y-72637813D01*
X127629385Y-71765667D01*
X127306730Y-71505402D01*
X125612132Y-73200000D01*
X125187868Y-73200000D01*
X123493270Y-71505402D01*
X123170615Y-71765667D01*
X122791421Y-72727998D01*
X120550000Y-72727998D01*
X120550000Y-71293270D01*
X123705402Y-71293270D01*
X125400000Y-72987868D01*
X127094598Y-71293270D01*
X126834333Y-70970615D01*
X125872002Y-70591421D01*
X124837813Y-70609360D01*
X123965667Y-70970615D01*
X123705402Y-71293270D01*
X120550000Y-71293270D01*
X120550000Y-62634924D01*
X128742462Y-54442462D01*
X128970074Y-54101818D01*
X129050000Y-53700000D01*
X128970074Y-53298183D01*
X128742462Y-52957538D01*
X128401817Y-52729926D01*
X128000000Y-52650000D01*
X127598182Y-52729926D01*
X127257538Y-52957538D01*
X118757538Y-61457538D01*
X118529926Y-61798182D01*
X118450000Y-62200000D01*
X117500000Y-62200000D01*
X117500000Y-60484924D01*
X123542462Y-54442462D01*
X123770074Y-54101818D01*
X123850000Y-53700000D01*
X123770074Y-53298182D01*
X123542462Y-52957538D01*
X123201818Y-52729926D01*
X122800000Y-52650000D01*
X122398182Y-52729926D01*
X122057538Y-52957538D01*
X115707538Y-59307538D01*
X115479926Y-59648182D01*
X115400000Y-60050000D01*
X106850836Y-60050000D01*
X107004790Y-59919386D01*
X107450698Y-58812342D01*
X107439015Y-57618926D01*
X107004790Y-56570614D01*
X106640544Y-56261588D01*
X104657132Y-58245000D01*
X104232868Y-58245000D01*
X102249456Y-56261588D01*
X101885210Y-56570614D01*
X101439302Y-57677658D01*
X100375000Y-57677658D01*
X100375000Y-56049456D01*
X102461588Y-56049456D01*
X104445000Y-58032868D01*
X106428412Y-56049456D01*
X106119386Y-55685210D01*
X105012342Y-55239302D01*
X103818926Y-55250985D01*
X102770614Y-55685210D01*
X102461588Y-56049456D01*
X100375000Y-56049456D01*
X100375000Y-52122746D01*
X102659801Y-52122746D01*
X102834509Y-52545572D01*
X103157727Y-52869354D01*
X103580247Y-53044800D01*
X104037746Y-53045199D01*
X104460572Y-52870491D01*
X104784354Y-52547273D01*
X104859021Y-52367455D01*
X145419677Y-52367455D01*
X145551631Y-52580939D01*
X146133592Y-52784779D01*
X146749261Y-52750396D01*
X147158369Y-52580939D01*
X147290323Y-52367455D01*
X146355000Y-51432132D01*
X145419677Y-52367455D01*
X104859021Y-52367455D01*
X104959800Y-52124753D01*
X104960199Y-51667254D01*
X104785491Y-51244428D01*
X104540084Y-50998592D01*
X144790221Y-50998592D01*
X144824604Y-51614261D01*
X144994061Y-52023369D01*
X145207545Y-52155323D01*
X146142868Y-51220000D01*
X146567132Y-51220000D01*
X147502455Y-52155323D01*
X147715939Y-52023369D01*
X147919779Y-51441408D01*
X147885396Y-50825739D01*
X147715939Y-50416631D01*
X147502455Y-50284677D01*
X146567132Y-51220000D01*
X146142868Y-51220000D01*
X145207545Y-50284677D01*
X144994061Y-50416631D01*
X144790221Y-50998592D01*
X104540084Y-50998592D01*
X104462273Y-50920646D01*
X104039753Y-50745200D01*
X103582254Y-50744801D01*
X103159428Y-50919509D01*
X102835646Y-51242727D01*
X102660200Y-51665247D01*
X102659801Y-52122746D01*
X100375000Y-52122746D01*
X100375000Y-50212006D01*
X103165126Y-50212006D01*
X103247819Y-50383970D01*
X103684382Y-50520781D01*
X104140070Y-50480114D01*
X104372181Y-50383970D01*
X104454874Y-50212006D01*
X104315413Y-50072545D01*
X145419677Y-50072545D01*
X146355000Y-51007868D01*
X147290323Y-50072545D01*
X147158369Y-49859061D01*
X146576408Y-49655221D01*
X145960739Y-49689604D01*
X145551631Y-49859061D01*
X145419677Y-50072545D01*
X104315413Y-50072545D01*
X103810000Y-49567132D01*
X103165126Y-50212006D01*
X100375000Y-50212006D01*
X100375000Y-49229382D01*
X102644219Y-49229382D01*
X102684886Y-49685070D01*
X102781030Y-49917181D01*
X102952994Y-49999874D01*
X103597868Y-49355000D01*
X104022132Y-49355000D01*
X104667006Y-49999874D01*
X104838970Y-49917181D01*
X104975781Y-49480618D01*
X104935114Y-49024930D01*
X104838970Y-48792819D01*
X104667006Y-48710126D01*
X104022132Y-49355000D01*
X103597868Y-49355000D01*
X102952994Y-48710126D01*
X102781030Y-48792819D01*
X102644219Y-49229382D01*
X100375000Y-49229382D01*
X100375000Y-48497994D01*
X103165126Y-48497994D01*
X103810000Y-49142868D01*
X104454874Y-48497994D01*
X104372181Y-48326030D01*
X103935618Y-48189219D01*
X103479930Y-48229886D01*
X103247819Y-48326030D01*
X103165126Y-48497994D01*
X100375000Y-48497994D01*
X100375000Y-46065000D01*
X102652164Y-46065000D01*
X102652164Y-47565000D01*
X102680056Y-47713231D01*
X102767660Y-47849372D01*
X102901329Y-47940704D01*
X103060000Y-47972836D01*
X104560000Y-47972836D01*
X104708231Y-47944944D01*
X104844372Y-47857340D01*
X104935704Y-47723671D01*
X104967836Y-47565000D01*
X104967836Y-46984118D01*
X114428014Y-46984118D01*
X114498294Y-47145735D01*
X114898401Y-47265740D01*
X115313976Y-47223495D01*
X115501706Y-47145735D01*
X115571986Y-46984118D01*
X115000000Y-46412132D01*
X114428014Y-46984118D01*
X104967836Y-46984118D01*
X104967836Y-46098401D01*
X113934260Y-46098401D01*
X113976505Y-46513976D01*
X114054265Y-46701706D01*
X114215882Y-46771986D01*
X114787868Y-46200000D01*
X115212132Y-46200000D01*
X115784118Y-46771986D01*
X115945735Y-46701706D01*
X116065740Y-46301599D01*
X116023495Y-45886024D01*
X115945735Y-45698294D01*
X115784118Y-45628014D01*
X115212132Y-46200000D01*
X114787868Y-46200000D01*
X114215882Y-45628014D01*
X114054265Y-45698294D01*
X113934260Y-46098401D01*
X104967836Y-46098401D01*
X104967836Y-46065000D01*
X104939944Y-45916769D01*
X104852340Y-45780628D01*
X104718671Y-45689296D01*
X104560000Y-45657164D01*
X103060000Y-45657164D01*
X102911769Y-45685056D01*
X102775628Y-45772660D01*
X102684296Y-45906329D01*
X102652164Y-46065000D01*
X100375000Y-46065000D01*
X100375000Y-45415882D01*
X114428014Y-45415882D01*
X115000000Y-45987868D01*
X115437868Y-45550000D01*
X117442164Y-45550000D01*
X117442164Y-46850000D01*
X117470056Y-46998231D01*
X117557660Y-47134372D01*
X117691329Y-47225704D01*
X117850000Y-47257836D01*
X119150000Y-47257836D01*
X119298231Y-47229944D01*
X119434372Y-47142340D01*
X119525704Y-47008671D01*
X119557836Y-46850000D01*
X119557836Y-46407942D01*
X131249818Y-46407942D01*
X131409334Y-46794000D01*
X131704446Y-47089628D01*
X132090226Y-47249818D01*
X132507942Y-47250182D01*
X132894000Y-47090666D01*
X133189628Y-46795554D01*
X133333114Y-46450000D01*
X134750000Y-46450000D01*
X134750000Y-46929565D01*
X134810896Y-47076582D01*
X134923418Y-47189104D01*
X135070435Y-47250000D01*
X135550000Y-47250000D01*
X135650000Y-47150000D01*
X135650000Y-46350000D01*
X135950000Y-46350000D01*
X135950000Y-47150000D01*
X136050000Y-47250000D01*
X136529565Y-47250000D01*
X136676582Y-47189104D01*
X136789104Y-47076582D01*
X136850000Y-46929565D01*
X136850000Y-46526961D01*
X144804732Y-46526961D01*
X145040208Y-47096857D01*
X145475849Y-47533260D01*
X146045333Y-47769730D01*
X146661961Y-47770268D01*
X147231857Y-47534792D01*
X147668260Y-47099151D01*
X147904730Y-46529667D01*
X147905268Y-45913039D01*
X147669792Y-45343143D01*
X147234151Y-44906740D01*
X146664667Y-44670270D01*
X146048039Y-44669732D01*
X145478143Y-44905208D01*
X145041740Y-45340849D01*
X144805270Y-45910333D01*
X144804732Y-46526961D01*
X136850000Y-46526961D01*
X136850000Y-46450000D01*
X136750000Y-46350000D01*
X135950000Y-46350000D01*
X135650000Y-46350000D01*
X134850000Y-46350000D01*
X134750000Y-46450000D01*
X133333114Y-46450000D01*
X133349818Y-46409774D01*
X133350182Y-45992058D01*
X133190666Y-45606000D01*
X133055338Y-45470435D01*
X134750000Y-45470435D01*
X134750000Y-45950000D01*
X134850000Y-46050000D01*
X135650000Y-46050000D01*
X135650000Y-45250000D01*
X135950000Y-45250000D01*
X135950000Y-46050000D01*
X136750000Y-46050000D01*
X136850000Y-45950000D01*
X136850000Y-45470435D01*
X136789104Y-45323418D01*
X136676582Y-45210896D01*
X136529565Y-45150000D01*
X136050000Y-45150000D01*
X135950000Y-45250000D01*
X135650000Y-45250000D01*
X135550000Y-45150000D01*
X135070435Y-45150000D01*
X134923418Y-45210896D01*
X134810896Y-45323418D01*
X134750000Y-45470435D01*
X133055338Y-45470435D01*
X132895554Y-45310372D01*
X132509774Y-45150182D01*
X132092058Y-45149818D01*
X131706000Y-45309334D01*
X131410372Y-45604446D01*
X131250182Y-45990226D01*
X131249818Y-46407942D01*
X119557836Y-46407942D01*
X119557836Y-45550000D01*
X119529944Y-45401769D01*
X119442340Y-45265628D01*
X119308671Y-45174296D01*
X119150000Y-45142164D01*
X117850000Y-45142164D01*
X117701769Y-45170056D01*
X117565628Y-45257660D01*
X117474296Y-45391329D01*
X117442164Y-45550000D01*
X115437868Y-45550000D01*
X115571986Y-45415882D01*
X115501706Y-45254265D01*
X115101599Y-45134260D01*
X114686024Y-45176505D01*
X114498294Y-45254265D01*
X114428014Y-45415882D01*
X100375000Y-45415882D01*
X100375000Y-40750000D01*
X121842164Y-40750000D01*
X121842164Y-42050000D01*
X121870056Y-42198231D01*
X121957660Y-42334372D01*
X122091329Y-42425704D01*
X122250000Y-42457836D01*
X123550000Y-42457836D01*
X123698231Y-42429944D01*
X123834372Y-42342340D01*
X123925704Y-42208671D01*
X123957836Y-42050000D01*
X123957836Y-41607942D01*
X126849818Y-41607942D01*
X127009334Y-41994000D01*
X127304446Y-42289628D01*
X127690226Y-42449818D01*
X128107942Y-42450182D01*
X128494000Y-42290666D01*
X128789628Y-41995554D01*
X128949818Y-41609774D01*
X128950182Y-41192058D01*
X128790666Y-40806000D01*
X128495554Y-40510372D01*
X128109774Y-40350182D01*
X127692058Y-40349818D01*
X127306000Y-40509334D01*
X127010372Y-40804446D01*
X126850182Y-41190226D01*
X126849818Y-41607942D01*
X123957836Y-41607942D01*
X123957836Y-40750000D01*
X123929944Y-40601769D01*
X123842340Y-40465628D01*
X123708671Y-40374296D01*
X123550000Y-40342164D01*
X122250000Y-40342164D01*
X122101769Y-40370056D01*
X121965628Y-40457660D01*
X121874296Y-40591329D01*
X121842164Y-40750000D01*
X100375000Y-40750000D01*
X100375000Y-36084118D01*
X110428014Y-36084118D01*
X110498294Y-36245735D01*
X110898401Y-36365740D01*
X111313976Y-36323495D01*
X111501706Y-36245735D01*
X111571986Y-36084118D01*
X111000000Y-35512132D01*
X110428014Y-36084118D01*
X100375000Y-36084118D01*
X100375000Y-35198401D01*
X109934260Y-35198401D01*
X109976505Y-35613976D01*
X110054265Y-35801706D01*
X110215882Y-35871986D01*
X110787868Y-35300000D01*
X111212132Y-35300000D01*
X111784118Y-35871986D01*
X111945735Y-35801706D01*
X112065740Y-35401599D01*
X112023495Y-34986024D01*
X111945735Y-34798294D01*
X111784118Y-34728014D01*
X111212132Y-35300000D01*
X110787868Y-35300000D01*
X110215882Y-34728014D01*
X110054265Y-34798294D01*
X109934260Y-35198401D01*
X100375000Y-35198401D01*
X100375000Y-34515882D01*
X110428014Y-34515882D01*
X111000000Y-35087868D01*
X111437868Y-34650000D01*
X114942164Y-34650000D01*
X114942164Y-35950000D01*
X114970056Y-36098231D01*
X115057660Y-36234372D01*
X115191329Y-36325704D01*
X115350000Y-36357836D01*
X116650000Y-36357836D01*
X116798231Y-36329944D01*
X116934372Y-36242340D01*
X117025704Y-36108671D01*
X117057836Y-35950000D01*
X117057836Y-35507942D01*
X133749818Y-35507942D01*
X133909334Y-35894000D01*
X134204446Y-36189628D01*
X134590226Y-36349818D01*
X135007942Y-36350182D01*
X135394000Y-36190666D01*
X135689628Y-35895554D01*
X135833114Y-35550000D01*
X138750000Y-35550000D01*
X138750000Y-36029565D01*
X138810896Y-36176582D01*
X138923418Y-36289104D01*
X139070435Y-36350000D01*
X139550000Y-36350000D01*
X139650000Y-36250000D01*
X139650000Y-35450000D01*
X139950000Y-35450000D01*
X139950000Y-36250000D01*
X140050000Y-36350000D01*
X140529565Y-36350000D01*
X140676582Y-36289104D01*
X140789104Y-36176582D01*
X140850000Y-36029565D01*
X140850000Y-35550000D01*
X140750000Y-35450000D01*
X139950000Y-35450000D01*
X139650000Y-35450000D01*
X138850000Y-35450000D01*
X138750000Y-35550000D01*
X135833114Y-35550000D01*
X135849818Y-35509774D01*
X135850182Y-35092058D01*
X135690666Y-34706000D01*
X135555338Y-34570435D01*
X138750000Y-34570435D01*
X138750000Y-35050000D01*
X138850000Y-35150000D01*
X139650000Y-35150000D01*
X139650000Y-34350000D01*
X139950000Y-34350000D01*
X139950000Y-35150000D01*
X140750000Y-35150000D01*
X140850000Y-35050000D01*
X140850000Y-34570435D01*
X140789104Y-34423418D01*
X140676582Y-34310896D01*
X140529565Y-34250000D01*
X140050000Y-34250000D01*
X139950000Y-34350000D01*
X139650000Y-34350000D01*
X139550000Y-34250000D01*
X139070435Y-34250000D01*
X138923418Y-34310896D01*
X138810896Y-34423418D01*
X138750000Y-34570435D01*
X135555338Y-34570435D01*
X135395554Y-34410372D01*
X135009774Y-34250182D01*
X134592058Y-34249818D01*
X134206000Y-34409334D01*
X133910372Y-34704446D01*
X133750182Y-35090226D01*
X133749818Y-35507942D01*
X117057836Y-35507942D01*
X117057836Y-34650000D01*
X117029944Y-34501769D01*
X116942340Y-34365628D01*
X116808671Y-34274296D01*
X116650000Y-34242164D01*
X115350000Y-34242164D01*
X115201769Y-34270056D01*
X115065628Y-34357660D01*
X114974296Y-34491329D01*
X114942164Y-34650000D01*
X111437868Y-34650000D01*
X111571986Y-34515882D01*
X111501706Y-34354265D01*
X111101599Y-34234260D01*
X110686024Y-34276505D01*
X110498294Y-34354265D01*
X110428014Y-34515882D01*
X100375000Y-34515882D01*
X100375000Y-32000328D01*
X100712943Y-32000623D01*
X102036572Y-31453711D01*
X102090376Y-31400000D01*
X121702164Y-31400000D01*
X121702164Y-32900000D01*
X121730056Y-33048231D01*
X121817660Y-33184372D01*
X121951329Y-33275704D01*
X122110000Y-33307836D01*
X123610000Y-33307836D01*
X123758231Y-33279944D01*
X123894372Y-33192340D01*
X123985704Y-33058671D01*
X123996166Y-33007006D01*
X124755126Y-33007006D01*
X124837819Y-33178970D01*
X125274382Y-33315781D01*
X125730070Y-33275114D01*
X125962181Y-33178970D01*
X126044874Y-33007006D01*
X125400000Y-32362132D01*
X124755126Y-33007006D01*
X123996166Y-33007006D01*
X124017836Y-32900000D01*
X124017836Y-32024382D01*
X124234219Y-32024382D01*
X124274886Y-32480070D01*
X124371030Y-32712181D01*
X124542994Y-32794874D01*
X125187868Y-32150000D01*
X125612132Y-32150000D01*
X126257006Y-32794874D01*
X126428970Y-32712181D01*
X126533775Y-32377746D01*
X126789801Y-32377746D01*
X126964509Y-32800572D01*
X127287727Y-33124354D01*
X127710247Y-33299800D01*
X128167746Y-33300199D01*
X128590572Y-33125491D01*
X128914354Y-32802273D01*
X129089800Y-32379753D01*
X129090199Y-31922254D01*
X128915491Y-31499428D01*
X128592273Y-31175646D01*
X128169753Y-31000200D01*
X127712254Y-30999801D01*
X127289428Y-31174509D01*
X126965646Y-31497727D01*
X126790200Y-31920247D01*
X126789801Y-32377746D01*
X126533775Y-32377746D01*
X126565781Y-32275618D01*
X126525114Y-31819930D01*
X126428970Y-31587819D01*
X126257006Y-31505126D01*
X125612132Y-32150000D01*
X125187868Y-32150000D01*
X124542994Y-31505126D01*
X124371030Y-31587819D01*
X124234219Y-32024382D01*
X124017836Y-32024382D01*
X124017836Y-31400000D01*
X123997702Y-31292994D01*
X124755126Y-31292994D01*
X125400000Y-31937868D01*
X126044874Y-31292994D01*
X125962181Y-31121030D01*
X125525618Y-30984219D01*
X125069930Y-31024886D01*
X124837819Y-31121030D01*
X124755126Y-31292994D01*
X123997702Y-31292994D01*
X123989944Y-31251769D01*
X123902340Y-31115628D01*
X123768671Y-31024296D01*
X123610000Y-30992164D01*
X122110000Y-30992164D01*
X121961769Y-31020056D01*
X121825628Y-31107660D01*
X121734296Y-31241329D01*
X121702164Y-31400000D01*
X102090376Y-31400000D01*
X103050152Y-30441899D01*
X103599374Y-29119226D01*
X103599674Y-28775000D01*
X147199672Y-28775000D01*
X147199377Y-29112943D01*
X147199377Y-29112943D01*
G37*
X147199377Y-29112943D02*
X147746289Y-30436572D01*
X148758101Y-31450152D01*
X150080774Y-31999374D01*
X150425000Y-31999674D01*
X150425000Y-126399672D01*
X150087057Y-126399377D01*
X148763428Y-126946289D01*
X147749848Y-127958101D01*
X147200626Y-129280774D01*
X147200326Y-129625000D01*
X103600328Y-129625000D01*
X103600623Y-129287057D01*
X103053711Y-127963428D01*
X102041899Y-126949848D01*
X100719226Y-126400626D01*
X100375000Y-126400326D01*
X100375000Y-125250000D01*
X120242164Y-125250000D01*
X120242164Y-126750000D01*
X120270056Y-126898231D01*
X120357660Y-127034372D01*
X120491329Y-127125704D01*
X120650000Y-127157836D01*
X122150000Y-127157836D01*
X122298231Y-127129944D01*
X122434372Y-127042340D01*
X122525704Y-126908671D01*
X122557836Y-126750000D01*
X122557836Y-126326518D01*
X122837313Y-126326518D01*
X123046203Y-126723643D01*
X123391165Y-127010600D01*
X123613484Y-127102672D01*
X123790000Y-127039230D01*
X123790000Y-126150000D01*
X124090000Y-126150000D01*
X124090000Y-127039230D01*
X124266516Y-127102672D01*
X124488835Y-127010600D01*
X124833797Y-126723643D01*
X125042687Y-126326518D01*
X124980190Y-126150000D01*
X124090000Y-126150000D01*
X123790000Y-126150000D01*
X122899810Y-126150000D01*
X122837313Y-126326518D01*
X122557836Y-126326518D01*
X122557836Y-125673482D01*
X122837313Y-125673482D01*
X122899810Y-125850000D01*
X123790000Y-125850000D01*
X123790000Y-124960770D01*
X124090000Y-124960770D01*
X124090000Y-125850000D01*
X124980190Y-125850000D01*
X125042687Y-125673482D01*
X124833797Y-125276357D01*
X124802113Y-125250000D01*
X125702164Y-125250000D01*
X125702164Y-126750000D01*
X125730056Y-126898231D01*
X125817660Y-127034372D01*
X125951329Y-127125704D01*
X126110000Y-127157836D01*
X127610000Y-127157836D01*
X127758231Y-127129944D01*
X127894372Y-127042340D01*
X127985704Y-126908671D01*
X128017836Y-126750000D01*
X128017836Y-126326518D01*
X128297313Y-126326518D01*
X128506203Y-126723643D01*
X128851165Y-127010600D01*
X129073484Y-127102672D01*
X129250000Y-127039230D01*
X129250000Y-126150000D01*
X129550000Y-126150000D01*
X129550000Y-127039230D01*
X129726516Y-127102672D01*
X129948835Y-127010600D01*
X130293797Y-126723643D01*
X130502687Y-126326518D01*
X130440190Y-126150000D01*
X129550000Y-126150000D01*
X129250000Y-126150000D01*
X128359810Y-126150000D01*
X128297313Y-126326518D01*
X128017836Y-126326518D01*
X128017836Y-125673482D01*
X128297313Y-125673482D01*
X128359810Y-125850000D01*
X129250000Y-125850000D01*
X129250000Y-124960770D01*
X129550000Y-124960770D01*
X129550000Y-125850000D01*
X130440190Y-125850000D01*
X130502687Y-125673482D01*
X130293797Y-125276357D01*
X129948835Y-124989400D01*
X129726516Y-124897328D01*
X129550000Y-124960770D01*
X129250000Y-124960770D01*
X129073484Y-124897328D01*
X128851165Y-124989400D01*
X128506203Y-125276357D01*
X128297313Y-125673482D01*
X128017836Y-125673482D01*
X128017836Y-125250000D01*
X127989944Y-125101769D01*
X127902340Y-124965628D01*
X127768671Y-124874296D01*
X127610000Y-124842164D01*
X126110000Y-124842164D01*
X125961769Y-124870056D01*
X125825628Y-124957660D01*
X125734296Y-125091329D01*
X125702164Y-125250000D01*
X124802113Y-125250000D01*
X124488835Y-124989400D01*
X124266516Y-124897328D01*
X124090000Y-124960770D01*
X123790000Y-124960770D01*
X123613484Y-124897328D01*
X123391165Y-124989400D01*
X123046203Y-125276357D01*
X122837313Y-125673482D01*
X122557836Y-125673482D01*
X122557836Y-125250000D01*
X122529944Y-125101769D01*
X122442340Y-124965628D01*
X122308671Y-124874296D01*
X122150000Y-124842164D01*
X120650000Y-124842164D01*
X120501769Y-124870056D01*
X120365628Y-124957660D01*
X120274296Y-125091329D01*
X120242164Y-125250000D01*
X100375000Y-125250000D01*
X100375000Y-113327455D01*
X145419677Y-113327455D01*
X145551631Y-113540939D01*
X146133592Y-113744779D01*
X146749261Y-113710396D01*
X147158369Y-113540939D01*
X147290323Y-113327455D01*
X146355000Y-112392132D01*
X145419677Y-113327455D01*
X100375000Y-113327455D01*
X100375000Y-111937746D01*
X102659801Y-111937746D01*
X102834509Y-112360572D01*
X103157727Y-112684354D01*
X103580247Y-112859800D01*
X104037746Y-112860199D01*
X104460572Y-112685491D01*
X104784354Y-112362273D01*
X104951977Y-111958592D01*
X144790221Y-111958592D01*
X144824604Y-112574261D01*
X144994061Y-112983369D01*
X145207545Y-113115323D01*
X146142868Y-112180000D01*
X146567132Y-112180000D01*
X147502455Y-113115323D01*
X147715939Y-112983369D01*
X147919779Y-112401408D01*
X147885396Y-111785739D01*
X147715939Y-111376631D01*
X147502455Y-111244677D01*
X146567132Y-112180000D01*
X146142868Y-112180000D01*
X145207545Y-111244677D01*
X144994061Y-111376631D01*
X144790221Y-111958592D01*
X104951977Y-111958592D01*
X104959800Y-111939753D01*
X104960199Y-111482254D01*
X104785491Y-111059428D01*
X104758655Y-111032545D01*
X145419677Y-111032545D01*
X146355000Y-111967868D01*
X147290323Y-111032545D01*
X147158369Y-110819061D01*
X146576408Y-110615221D01*
X145960739Y-110649604D01*
X145551631Y-110819061D01*
X145419677Y-111032545D01*
X104758655Y-111032545D01*
X104462273Y-110735646D01*
X104039753Y-110560200D01*
X103582254Y-110559801D01*
X103159428Y-110734509D01*
X102835646Y-111057727D01*
X102660200Y-111480247D01*
X102659801Y-111937746D01*
X100375000Y-111937746D01*
X100375000Y-110027006D01*
X103165126Y-110027006D01*
X103247819Y-110198970D01*
X103684382Y-110335781D01*
X104140070Y-110295114D01*
X104372181Y-110198970D01*
X104454874Y-110027006D01*
X103810000Y-109382132D01*
X103165126Y-110027006D01*
X100375000Y-110027006D01*
X100375000Y-109044382D01*
X102644219Y-109044382D01*
X102684886Y-109500070D01*
X102781030Y-109732181D01*
X102952994Y-109814874D01*
X103597868Y-109170000D01*
X104022132Y-109170000D01*
X104667006Y-109814874D01*
X104838970Y-109732181D01*
X104975781Y-109295618D01*
X104935114Y-108839930D01*
X104838970Y-108607819D01*
X104667006Y-108525126D01*
X104022132Y-109170000D01*
X103597868Y-109170000D01*
X102952994Y-108525126D01*
X102781030Y-108607819D01*
X102644219Y-109044382D01*
X100375000Y-109044382D01*
X100375000Y-108312994D01*
X103165126Y-108312994D01*
X103810000Y-108957868D01*
X104454874Y-108312994D01*
X104372181Y-108141030D01*
X103935618Y-108004219D01*
X103479930Y-108044886D01*
X103247819Y-108141030D01*
X103165126Y-108312994D01*
X100375000Y-108312994D01*
X100375000Y-105880000D01*
X102652164Y-105880000D01*
X102652164Y-107380000D01*
X102680056Y-107528231D01*
X102767660Y-107664372D01*
X102901329Y-107755704D01*
X103060000Y-107787836D01*
X104560000Y-107787836D01*
X104708231Y-107759944D01*
X104844372Y-107672340D01*
X104935704Y-107538671D01*
X104946175Y-107486961D01*
X144804732Y-107486961D01*
X145040208Y-108056857D01*
X145475849Y-108493260D01*
X146045333Y-108729730D01*
X146661961Y-108730268D01*
X147231857Y-108494792D01*
X147668260Y-108059151D01*
X147904730Y-107489667D01*
X147905268Y-106873039D01*
X147669792Y-106303143D01*
X147234151Y-105866740D01*
X146664667Y-105630270D01*
X146048039Y-105629732D01*
X145478143Y-105865208D01*
X145041740Y-106300849D01*
X144805270Y-106870333D01*
X144804732Y-107486961D01*
X104946175Y-107486961D01*
X104967836Y-107380000D01*
X104967836Y-105880000D01*
X104939944Y-105731769D01*
X104852340Y-105595628D01*
X104718671Y-105504296D01*
X104560000Y-105472164D01*
X103060000Y-105472164D01*
X102911769Y-105500056D01*
X102775628Y-105587660D01*
X102684296Y-105721329D01*
X102652164Y-105880000D01*
X100375000Y-105880000D01*
X100375000Y-102350544D01*
X144371588Y-102350544D01*
X144680614Y-102714790D01*
X145787658Y-103160698D01*
X146981074Y-103149015D01*
X148029386Y-102714790D01*
X148338412Y-102350544D01*
X146355000Y-100367132D01*
X144371588Y-102350544D01*
X100375000Y-102350544D01*
X100375000Y-99587658D01*
X143349302Y-99587658D01*
X143360985Y-100781074D01*
X143795210Y-101829386D01*
X144159456Y-102138412D01*
X146142868Y-100155000D01*
X146567132Y-100155000D01*
X148550544Y-102138412D01*
X148914790Y-101829386D01*
X149360698Y-100722342D01*
X149349015Y-99528926D01*
X148914790Y-98480614D01*
X148550544Y-98171588D01*
X146567132Y-100155000D01*
X146142868Y-100155000D01*
X144159456Y-98171588D01*
X143795210Y-98480614D01*
X143349302Y-99587658D01*
X100375000Y-99587658D01*
X100375000Y-93950000D01*
X129950000Y-93950000D01*
X129950000Y-97200000D01*
X130018508Y-97544415D01*
X130213604Y-97836396D01*
X130505585Y-98031492D01*
X130850000Y-98100000D01*
X131194415Y-98031492D01*
X131302224Y-97959456D01*
X144371588Y-97959456D01*
X146355000Y-99942868D01*
X148338412Y-97959456D01*
X148029386Y-97595210D01*
X146922342Y-97149302D01*
X145728926Y-97160985D01*
X144680614Y-97595210D01*
X144371588Y-97959456D01*
X131302224Y-97959456D01*
X131486396Y-97836396D01*
X131681492Y-97544415D01*
X131750000Y-97200000D01*
X131750000Y-94322792D01*
X137786396Y-88286396D01*
X137981492Y-87994416D01*
X138050000Y-87650000D01*
X138050000Y-84250000D01*
X137981492Y-83905585D01*
X137981492Y-83905584D01*
X137786396Y-83613604D01*
X135750000Y-81577208D01*
X135750000Y-75222792D01*
X137536396Y-73436396D01*
X137731492Y-73144415D01*
X137800000Y-72800000D01*
X137800000Y-70600000D01*
X137731492Y-70255585D01*
X137731492Y-70255584D01*
X137536396Y-69963604D01*
X133200000Y-65627208D01*
X133200000Y-58650000D01*
X133131492Y-58305585D01*
X132936396Y-58013604D01*
X132644415Y-57818508D01*
X132300000Y-57750000D01*
X131955585Y-57818508D01*
X131663604Y-58013604D01*
X131468508Y-58305585D01*
X131400000Y-58650000D01*
X131400000Y-66000000D01*
X131468508Y-66344415D01*
X131663604Y-66636396D01*
X136000000Y-70972792D01*
X136000000Y-72427208D01*
X134213604Y-74213604D01*
X134018508Y-74505585D01*
X133950000Y-74850000D01*
X133950000Y-81950000D01*
X134018508Y-82294415D01*
X134213604Y-82586396D01*
X136250000Y-84622792D01*
X136250000Y-87277208D01*
X130213604Y-93313604D01*
X130018508Y-93605585D01*
X129950000Y-93950000D01*
X100375000Y-93950000D01*
X100375000Y-60440544D01*
X102461588Y-60440544D01*
X102770614Y-60804790D01*
X103877658Y-61250698D01*
X105071074Y-61239015D01*
X106119386Y-60804790D01*
X106428412Y-60440544D01*
X104445000Y-58457132D01*
X102461588Y-60440544D01*
X100375000Y-60440544D01*
X100375000Y-57677658D01*
X101439302Y-57677658D01*
X101450985Y-58871074D01*
X101885210Y-59919386D01*
X102249456Y-60228412D01*
X104232868Y-58245000D01*
X104657132Y-58245000D01*
X106640544Y-60228412D01*
X106850836Y-60050000D01*
X115400000Y-60050000D01*
X115400000Y-91550000D01*
X115479926Y-91951818D01*
X115707538Y-92292462D01*
X116048182Y-92520074D01*
X116450000Y-92600000D01*
X116851818Y-92520074D01*
X117192462Y-92292462D01*
X117420074Y-91951818D01*
X117500000Y-91550000D01*
X117500000Y-62200000D01*
X118450000Y-62200000D01*
X118450000Y-91550000D01*
X118529926Y-91951818D01*
X118757538Y-92292462D01*
X119098182Y-92520074D01*
X119500000Y-92600000D01*
X128300000Y-92600000D01*
X128701818Y-92520074D01*
X129042462Y-92292462D01*
X130592462Y-90742462D01*
X130820074Y-90401818D01*
X130900000Y-90000000D01*
X130820074Y-89598182D01*
X130592462Y-89257538D01*
X130251818Y-89029926D01*
X129850000Y-88950000D01*
X129448182Y-89029926D01*
X129107538Y-89257538D01*
X127865076Y-90500000D01*
X120550000Y-90500000D01*
X120550000Y-87206730D01*
X123705402Y-87206730D01*
X123965667Y-87529385D01*
X124927998Y-87908579D01*
X125962187Y-87890640D01*
X126834333Y-87529385D01*
X127094598Y-87206730D01*
X125400000Y-85512132D01*
X123705402Y-87206730D01*
X120550000Y-87206730D01*
X120550000Y-84827998D01*
X122791421Y-84827998D01*
X122809360Y-85862187D01*
X123170615Y-86734333D01*
X123493270Y-86994598D01*
X125187868Y-85300000D01*
X125612132Y-85300000D01*
X127306730Y-86994598D01*
X127629385Y-86734333D01*
X128008579Y-85772002D01*
X127990640Y-84737813D01*
X127629385Y-83865667D01*
X127306730Y-83605402D01*
X125612132Y-85300000D01*
X125187868Y-85300000D01*
X123493270Y-83605402D01*
X123170615Y-83865667D01*
X122791421Y-84827998D01*
X120550000Y-84827998D01*
X120550000Y-83393270D01*
X123705402Y-83393270D01*
X125400000Y-85087868D01*
X127094598Y-83393270D01*
X126834333Y-83070615D01*
X125872002Y-82691421D01*
X124837813Y-82709360D01*
X123965667Y-83070615D01*
X123705402Y-83393270D01*
X120550000Y-83393270D01*
X120550000Y-81106730D01*
X123705402Y-81106730D01*
X123965667Y-81429385D01*
X124927998Y-81808579D01*
X125962187Y-81790640D01*
X126834333Y-81429385D01*
X127094598Y-81106730D01*
X125400000Y-79412132D01*
X123705402Y-81106730D01*
X120550000Y-81106730D01*
X120550000Y-78727998D01*
X122791421Y-78727998D01*
X122809360Y-79762187D01*
X123170615Y-80634333D01*
X123493270Y-80894598D01*
X125187868Y-79200000D01*
X125612132Y-79200000D01*
X127306730Y-80894598D01*
X127629385Y-80634333D01*
X128008579Y-79672002D01*
X127990640Y-78637813D01*
X127629385Y-77765667D01*
X127306730Y-77505402D01*
X125612132Y-79200000D01*
X125187868Y-79200000D01*
X123493270Y-77505402D01*
X123170615Y-77765667D01*
X122791421Y-78727998D01*
X120550000Y-78727998D01*
X120550000Y-77293270D01*
X123705402Y-77293270D01*
X125400000Y-78987868D01*
X127094598Y-77293270D01*
X126834333Y-76970615D01*
X125872002Y-76591421D01*
X124837813Y-76609360D01*
X123965667Y-76970615D01*
X123705402Y-77293270D01*
X120550000Y-77293270D01*
X120550000Y-75106730D01*
X123705402Y-75106730D01*
X123965667Y-75429385D01*
X124927998Y-75808579D01*
X125962187Y-75790640D01*
X126834333Y-75429385D01*
X127094598Y-75106730D01*
X125400000Y-73412132D01*
X123705402Y-75106730D01*
X120550000Y-75106730D01*
X120550000Y-72727998D01*
X122791421Y-72727998D01*
X122809360Y-73762187D01*
X123170615Y-74634333D01*
X123493270Y-74894598D01*
X125187868Y-73200000D01*
X125612132Y-73200000D01*
X127306730Y-74894598D01*
X127629385Y-74634333D01*
X127918739Y-73900000D01*
X131950000Y-73900000D01*
X131950000Y-82950000D01*
X132018508Y-83294415D01*
X132213604Y-83586396D01*
X134363604Y-85736396D01*
X134655584Y-85931492D01*
X135000000Y-86000000D01*
X135344415Y-85931492D01*
X135636396Y-85736396D01*
X135831492Y-85444415D01*
X135900000Y-85100000D01*
X135831492Y-84755584D01*
X135636396Y-84463604D01*
X133750000Y-82577208D01*
X133750000Y-74272792D01*
X135636396Y-72386396D01*
X135831492Y-72094416D01*
X135900000Y-71750000D01*
X135831492Y-71405585D01*
X135636396Y-71113604D01*
X135344415Y-70918508D01*
X135000000Y-70850000D01*
X134655584Y-70918508D01*
X134363604Y-71113604D01*
X132213604Y-73263604D01*
X132018508Y-73555585D01*
X131950000Y-73900000D01*
X127918739Y-73900000D01*
X128008579Y-73672002D01*
X127990640Y-72637813D01*
X127629385Y-71765667D01*
X127306730Y-71505402D01*
X125612132Y-73200000D01*
X125187868Y-73200000D01*
X123493270Y-71505402D01*
X123170615Y-71765667D01*
X122791421Y-72727998D01*
X120550000Y-72727998D01*
X120550000Y-71293270D01*
X123705402Y-71293270D01*
X125400000Y-72987868D01*
X127094598Y-71293270D01*
X126834333Y-70970615D01*
X125872002Y-70591421D01*
X124837813Y-70609360D01*
X123965667Y-70970615D01*
X123705402Y-71293270D01*
X120550000Y-71293270D01*
X120550000Y-62634924D01*
X128742462Y-54442462D01*
X128970074Y-54101818D01*
X129050000Y-53700000D01*
X128970074Y-53298183D01*
X128742462Y-52957538D01*
X128401817Y-52729926D01*
X128000000Y-52650000D01*
X127598182Y-52729926D01*
X127257538Y-52957538D01*
X118757538Y-61457538D01*
X118529926Y-61798182D01*
X118450000Y-62200000D01*
X117500000Y-62200000D01*
X117500000Y-60484924D01*
X123542462Y-54442462D01*
X123770074Y-54101818D01*
X123850000Y-53700000D01*
X123770074Y-53298182D01*
X123542462Y-52957538D01*
X123201818Y-52729926D01*
X122800000Y-52650000D01*
X122398182Y-52729926D01*
X122057538Y-52957538D01*
X115707538Y-59307538D01*
X115479926Y-59648182D01*
X115400000Y-60050000D01*
X106850836Y-60050000D01*
X107004790Y-59919386D01*
X107450698Y-58812342D01*
X107439015Y-57618926D01*
X107004790Y-56570614D01*
X106640544Y-56261588D01*
X104657132Y-58245000D01*
X104232868Y-58245000D01*
X102249456Y-56261588D01*
X101885210Y-56570614D01*
X101439302Y-57677658D01*
X100375000Y-57677658D01*
X100375000Y-56049456D01*
X102461588Y-56049456D01*
X104445000Y-58032868D01*
X106428412Y-56049456D01*
X106119386Y-55685210D01*
X105012342Y-55239302D01*
X103818926Y-55250985D01*
X102770614Y-55685210D01*
X102461588Y-56049456D01*
X100375000Y-56049456D01*
X100375000Y-52122746D01*
X102659801Y-52122746D01*
X102834509Y-52545572D01*
X103157727Y-52869354D01*
X103580247Y-53044800D01*
X104037746Y-53045199D01*
X104460572Y-52870491D01*
X104784354Y-52547273D01*
X104859021Y-52367455D01*
X145419677Y-52367455D01*
X145551631Y-52580939D01*
X146133592Y-52784779D01*
X146749261Y-52750396D01*
X147158369Y-52580939D01*
X147290323Y-52367455D01*
X146355000Y-51432132D01*
X145419677Y-52367455D01*
X104859021Y-52367455D01*
X104959800Y-52124753D01*
X104960199Y-51667254D01*
X104785491Y-51244428D01*
X104540084Y-50998592D01*
X144790221Y-50998592D01*
X144824604Y-51614261D01*
X144994061Y-52023369D01*
X145207545Y-52155323D01*
X146142868Y-51220000D01*
X146567132Y-51220000D01*
X147502455Y-52155323D01*
X147715939Y-52023369D01*
X147919779Y-51441408D01*
X147885396Y-50825739D01*
X147715939Y-50416631D01*
X147502455Y-50284677D01*
X146567132Y-51220000D01*
X146142868Y-51220000D01*
X145207545Y-50284677D01*
X144994061Y-50416631D01*
X144790221Y-50998592D01*
X104540084Y-50998592D01*
X104462273Y-50920646D01*
X104039753Y-50745200D01*
X103582254Y-50744801D01*
X103159428Y-50919509D01*
X102835646Y-51242727D01*
X102660200Y-51665247D01*
X102659801Y-52122746D01*
X100375000Y-52122746D01*
X100375000Y-50212006D01*
X103165126Y-50212006D01*
X103247819Y-50383970D01*
X103684382Y-50520781D01*
X104140070Y-50480114D01*
X104372181Y-50383970D01*
X104454874Y-50212006D01*
X104315413Y-50072545D01*
X145419677Y-50072545D01*
X146355000Y-51007868D01*
X147290323Y-50072545D01*
X147158369Y-49859061D01*
X146576408Y-49655221D01*
X145960739Y-49689604D01*
X145551631Y-49859061D01*
X145419677Y-50072545D01*
X104315413Y-50072545D01*
X103810000Y-49567132D01*
X103165126Y-50212006D01*
X100375000Y-50212006D01*
X100375000Y-49229382D01*
X102644219Y-49229382D01*
X102684886Y-49685070D01*
X102781030Y-49917181D01*
X102952994Y-49999874D01*
X103597868Y-49355000D01*
X104022132Y-49355000D01*
X104667006Y-49999874D01*
X104838970Y-49917181D01*
X104975781Y-49480618D01*
X104935114Y-49024930D01*
X104838970Y-48792819D01*
X104667006Y-48710126D01*
X104022132Y-49355000D01*
X103597868Y-49355000D01*
X102952994Y-48710126D01*
X102781030Y-48792819D01*
X102644219Y-49229382D01*
X100375000Y-49229382D01*
X100375000Y-48497994D01*
X103165126Y-48497994D01*
X103810000Y-49142868D01*
X104454874Y-48497994D01*
X104372181Y-48326030D01*
X103935618Y-48189219D01*
X103479930Y-48229886D01*
X103247819Y-48326030D01*
X103165126Y-48497994D01*
X100375000Y-48497994D01*
X100375000Y-46065000D01*
X102652164Y-46065000D01*
X102652164Y-47565000D01*
X102680056Y-47713231D01*
X102767660Y-47849372D01*
X102901329Y-47940704D01*
X103060000Y-47972836D01*
X104560000Y-47972836D01*
X104708231Y-47944944D01*
X104844372Y-47857340D01*
X104935704Y-47723671D01*
X104967836Y-47565000D01*
X104967836Y-46984118D01*
X114428014Y-46984118D01*
X114498294Y-47145735D01*
X114898401Y-47265740D01*
X115313976Y-47223495D01*
X115501706Y-47145735D01*
X115571986Y-46984118D01*
X115000000Y-46412132D01*
X114428014Y-46984118D01*
X104967836Y-46984118D01*
X104967836Y-46098401D01*
X113934260Y-46098401D01*
X113976505Y-46513976D01*
X114054265Y-46701706D01*
X114215882Y-46771986D01*
X114787868Y-46200000D01*
X115212132Y-46200000D01*
X115784118Y-46771986D01*
X115945735Y-46701706D01*
X116065740Y-46301599D01*
X116023495Y-45886024D01*
X115945735Y-45698294D01*
X115784118Y-45628014D01*
X115212132Y-46200000D01*
X114787868Y-46200000D01*
X114215882Y-45628014D01*
X114054265Y-45698294D01*
X113934260Y-46098401D01*
X104967836Y-46098401D01*
X104967836Y-46065000D01*
X104939944Y-45916769D01*
X104852340Y-45780628D01*
X104718671Y-45689296D01*
X104560000Y-45657164D01*
X103060000Y-45657164D01*
X102911769Y-45685056D01*
X102775628Y-45772660D01*
X102684296Y-45906329D01*
X102652164Y-46065000D01*
X100375000Y-46065000D01*
X100375000Y-45415882D01*
X114428014Y-45415882D01*
X115000000Y-45987868D01*
X115437868Y-45550000D01*
X117442164Y-45550000D01*
X117442164Y-46850000D01*
X117470056Y-46998231D01*
X117557660Y-47134372D01*
X117691329Y-47225704D01*
X117850000Y-47257836D01*
X119150000Y-47257836D01*
X119298231Y-47229944D01*
X119434372Y-47142340D01*
X119525704Y-47008671D01*
X119557836Y-46850000D01*
X119557836Y-46407942D01*
X131249818Y-46407942D01*
X131409334Y-46794000D01*
X131704446Y-47089628D01*
X132090226Y-47249818D01*
X132507942Y-47250182D01*
X132894000Y-47090666D01*
X133189628Y-46795554D01*
X133333114Y-46450000D01*
X134750000Y-46450000D01*
X134750000Y-46929565D01*
X134810896Y-47076582D01*
X134923418Y-47189104D01*
X135070435Y-47250000D01*
X135550000Y-47250000D01*
X135650000Y-47150000D01*
X135650000Y-46350000D01*
X135950000Y-46350000D01*
X135950000Y-47150000D01*
X136050000Y-47250000D01*
X136529565Y-47250000D01*
X136676582Y-47189104D01*
X136789104Y-47076582D01*
X136850000Y-46929565D01*
X136850000Y-46526961D01*
X144804732Y-46526961D01*
X145040208Y-47096857D01*
X145475849Y-47533260D01*
X146045333Y-47769730D01*
X146661961Y-47770268D01*
X147231857Y-47534792D01*
X147668260Y-47099151D01*
X147904730Y-46529667D01*
X147905268Y-45913039D01*
X147669792Y-45343143D01*
X147234151Y-44906740D01*
X146664667Y-44670270D01*
X146048039Y-44669732D01*
X145478143Y-44905208D01*
X145041740Y-45340849D01*
X144805270Y-45910333D01*
X144804732Y-46526961D01*
X136850000Y-46526961D01*
X136850000Y-46450000D01*
X136750000Y-46350000D01*
X135950000Y-46350000D01*
X135650000Y-46350000D01*
X134850000Y-46350000D01*
X134750000Y-46450000D01*
X133333114Y-46450000D01*
X133349818Y-46409774D01*
X133350182Y-45992058D01*
X133190666Y-45606000D01*
X133055338Y-45470435D01*
X134750000Y-45470435D01*
X134750000Y-45950000D01*
X134850000Y-46050000D01*
X135650000Y-46050000D01*
X135650000Y-45250000D01*
X135950000Y-45250000D01*
X135950000Y-46050000D01*
X136750000Y-46050000D01*
X136850000Y-45950000D01*
X136850000Y-45470435D01*
X136789104Y-45323418D01*
X136676582Y-45210896D01*
X136529565Y-45150000D01*
X136050000Y-45150000D01*
X135950000Y-45250000D01*
X135650000Y-45250000D01*
X135550000Y-45150000D01*
X135070435Y-45150000D01*
X134923418Y-45210896D01*
X134810896Y-45323418D01*
X134750000Y-45470435D01*
X133055338Y-45470435D01*
X132895554Y-45310372D01*
X132509774Y-45150182D01*
X132092058Y-45149818D01*
X131706000Y-45309334D01*
X131410372Y-45604446D01*
X131250182Y-45990226D01*
X131249818Y-46407942D01*
X119557836Y-46407942D01*
X119557836Y-45550000D01*
X119529944Y-45401769D01*
X119442340Y-45265628D01*
X119308671Y-45174296D01*
X119150000Y-45142164D01*
X117850000Y-45142164D01*
X117701769Y-45170056D01*
X117565628Y-45257660D01*
X117474296Y-45391329D01*
X117442164Y-45550000D01*
X115437868Y-45550000D01*
X115571986Y-45415882D01*
X115501706Y-45254265D01*
X115101599Y-45134260D01*
X114686024Y-45176505D01*
X114498294Y-45254265D01*
X114428014Y-45415882D01*
X100375000Y-45415882D01*
X100375000Y-40750000D01*
X121842164Y-40750000D01*
X121842164Y-42050000D01*
X121870056Y-42198231D01*
X121957660Y-42334372D01*
X122091329Y-42425704D01*
X122250000Y-42457836D01*
X123550000Y-42457836D01*
X123698231Y-42429944D01*
X123834372Y-42342340D01*
X123925704Y-42208671D01*
X123957836Y-42050000D01*
X123957836Y-41607942D01*
X126849818Y-41607942D01*
X127009334Y-41994000D01*
X127304446Y-42289628D01*
X127690226Y-42449818D01*
X128107942Y-42450182D01*
X128494000Y-42290666D01*
X128789628Y-41995554D01*
X128949818Y-41609774D01*
X128950182Y-41192058D01*
X128790666Y-40806000D01*
X128495554Y-40510372D01*
X128109774Y-40350182D01*
X127692058Y-40349818D01*
X127306000Y-40509334D01*
X127010372Y-40804446D01*
X126850182Y-41190226D01*
X126849818Y-41607942D01*
X123957836Y-41607942D01*
X123957836Y-40750000D01*
X123929944Y-40601769D01*
X123842340Y-40465628D01*
X123708671Y-40374296D01*
X123550000Y-40342164D01*
X122250000Y-40342164D01*
X122101769Y-40370056D01*
X121965628Y-40457660D01*
X121874296Y-40591329D01*
X121842164Y-40750000D01*
X100375000Y-40750000D01*
X100375000Y-36084118D01*
X110428014Y-36084118D01*
X110498294Y-36245735D01*
X110898401Y-36365740D01*
X111313976Y-36323495D01*
X111501706Y-36245735D01*
X111571986Y-36084118D01*
X111000000Y-35512132D01*
X110428014Y-36084118D01*
X100375000Y-36084118D01*
X100375000Y-35198401D01*
X109934260Y-35198401D01*
X109976505Y-35613976D01*
X110054265Y-35801706D01*
X110215882Y-35871986D01*
X110787868Y-35300000D01*
X111212132Y-35300000D01*
X111784118Y-35871986D01*
X111945735Y-35801706D01*
X112065740Y-35401599D01*
X112023495Y-34986024D01*
X111945735Y-34798294D01*
X111784118Y-34728014D01*
X111212132Y-35300000D01*
X110787868Y-35300000D01*
X110215882Y-34728014D01*
X110054265Y-34798294D01*
X109934260Y-35198401D01*
X100375000Y-35198401D01*
X100375000Y-34515882D01*
X110428014Y-34515882D01*
X111000000Y-35087868D01*
X111437868Y-34650000D01*
X114942164Y-34650000D01*
X114942164Y-35950000D01*
X114970056Y-36098231D01*
X115057660Y-36234372D01*
X115191329Y-36325704D01*
X115350000Y-36357836D01*
X116650000Y-36357836D01*
X116798231Y-36329944D01*
X116934372Y-36242340D01*
X117025704Y-36108671D01*
X117057836Y-35950000D01*
X117057836Y-35507942D01*
X133749818Y-35507942D01*
X133909334Y-35894000D01*
X134204446Y-36189628D01*
X134590226Y-36349818D01*
X135007942Y-36350182D01*
X135394000Y-36190666D01*
X135689628Y-35895554D01*
X135833114Y-35550000D01*
X138750000Y-35550000D01*
X138750000Y-36029565D01*
X138810896Y-36176582D01*
X138923418Y-36289104D01*
X139070435Y-36350000D01*
X139550000Y-36350000D01*
X139650000Y-36250000D01*
X139650000Y-35450000D01*
X139950000Y-35450000D01*
X139950000Y-36250000D01*
X140050000Y-36350000D01*
X140529565Y-36350000D01*
X140676582Y-36289104D01*
X140789104Y-36176582D01*
X140850000Y-36029565D01*
X140850000Y-35550000D01*
X140750000Y-35450000D01*
X139950000Y-35450000D01*
X139650000Y-35450000D01*
X138850000Y-35450000D01*
X138750000Y-35550000D01*
X135833114Y-35550000D01*
X135849818Y-35509774D01*
X135850182Y-35092058D01*
X135690666Y-34706000D01*
X135555338Y-34570435D01*
X138750000Y-34570435D01*
X138750000Y-35050000D01*
X138850000Y-35150000D01*
X139650000Y-35150000D01*
X139650000Y-34350000D01*
X139950000Y-34350000D01*
X139950000Y-35150000D01*
X140750000Y-35150000D01*
X140850000Y-35050000D01*
X140850000Y-34570435D01*
X140789104Y-34423418D01*
X140676582Y-34310896D01*
X140529565Y-34250000D01*
X140050000Y-34250000D01*
X139950000Y-34350000D01*
X139650000Y-34350000D01*
X139550000Y-34250000D01*
X139070435Y-34250000D01*
X138923418Y-34310896D01*
X138810896Y-34423418D01*
X138750000Y-34570435D01*
X135555338Y-34570435D01*
X135395554Y-34410372D01*
X135009774Y-34250182D01*
X134592058Y-34249818D01*
X134206000Y-34409334D01*
X133910372Y-34704446D01*
X133750182Y-35090226D01*
X133749818Y-35507942D01*
X117057836Y-35507942D01*
X117057836Y-34650000D01*
X117029944Y-34501769D01*
X116942340Y-34365628D01*
X116808671Y-34274296D01*
X116650000Y-34242164D01*
X115350000Y-34242164D01*
X115201769Y-34270056D01*
X115065628Y-34357660D01*
X114974296Y-34491329D01*
X114942164Y-34650000D01*
X111437868Y-34650000D01*
X111571986Y-34515882D01*
X111501706Y-34354265D01*
X111101599Y-34234260D01*
X110686024Y-34276505D01*
X110498294Y-34354265D01*
X110428014Y-34515882D01*
X100375000Y-34515882D01*
X100375000Y-32000328D01*
X100712943Y-32000623D01*
X102036572Y-31453711D01*
X102090376Y-31400000D01*
X121702164Y-31400000D01*
X121702164Y-32900000D01*
X121730056Y-33048231D01*
X121817660Y-33184372D01*
X121951329Y-33275704D01*
X122110000Y-33307836D01*
X123610000Y-33307836D01*
X123758231Y-33279944D01*
X123894372Y-33192340D01*
X123985704Y-33058671D01*
X123996166Y-33007006D01*
X124755126Y-33007006D01*
X124837819Y-33178970D01*
X125274382Y-33315781D01*
X125730070Y-33275114D01*
X125962181Y-33178970D01*
X126044874Y-33007006D01*
X125400000Y-32362132D01*
X124755126Y-33007006D01*
X123996166Y-33007006D01*
X124017836Y-32900000D01*
X124017836Y-32024382D01*
X124234219Y-32024382D01*
X124274886Y-32480070D01*
X124371030Y-32712181D01*
X124542994Y-32794874D01*
X125187868Y-32150000D01*
X125612132Y-32150000D01*
X126257006Y-32794874D01*
X126428970Y-32712181D01*
X126533775Y-32377746D01*
X126789801Y-32377746D01*
X126964509Y-32800572D01*
X127287727Y-33124354D01*
X127710247Y-33299800D01*
X128167746Y-33300199D01*
X128590572Y-33125491D01*
X128914354Y-32802273D01*
X129089800Y-32379753D01*
X129090199Y-31922254D01*
X128915491Y-31499428D01*
X128592273Y-31175646D01*
X128169753Y-31000200D01*
X127712254Y-30999801D01*
X127289428Y-31174509D01*
X126965646Y-31497727D01*
X126790200Y-31920247D01*
X126789801Y-32377746D01*
X126533775Y-32377746D01*
X126565781Y-32275618D01*
X126525114Y-31819930D01*
X126428970Y-31587819D01*
X126257006Y-31505126D01*
X125612132Y-32150000D01*
X125187868Y-32150000D01*
X124542994Y-31505126D01*
X124371030Y-31587819D01*
X124234219Y-32024382D01*
X124017836Y-32024382D01*
X124017836Y-31400000D01*
X123997702Y-31292994D01*
X124755126Y-31292994D01*
X125400000Y-31937868D01*
X126044874Y-31292994D01*
X125962181Y-31121030D01*
X125525618Y-30984219D01*
X125069930Y-31024886D01*
X124837819Y-31121030D01*
X124755126Y-31292994D01*
X123997702Y-31292994D01*
X123989944Y-31251769D01*
X123902340Y-31115628D01*
X123768671Y-31024296D01*
X123610000Y-30992164D01*
X122110000Y-30992164D01*
X121961769Y-31020056D01*
X121825628Y-31107660D01*
X121734296Y-31241329D01*
X121702164Y-31400000D01*
X102090376Y-31400000D01*
X103050152Y-30441899D01*
X103599374Y-29119226D01*
X103599674Y-28775000D01*
X147199672Y-28775000D01*
X147199377Y-29112943D01*
M02*
