M48
;DRILL file {KiCad 4.0.2-stable} date 08.07.2018 23:18:19
;FORMAT={-:-/ absolute / metric / decimal}
FMAT,2
METRIC,TZ
T1C0.300
T2C0.800
T3C0.900
T4C1.300
T5C2.200
T6C3.200
%
G90
G05
M71
T1
X100.7Y-84.2
X100.7Y-89.2
X100.7Y-94.2
X100.7Y-99.2
X100.7Y-104.2
X100.7Y-109.2
X100.7Y-114.2
X101.Y-119.
X101.Y-124.
X102.Y-35.
X102.Y-39.
X102.Y-43.
X102.Y-63.
X102.Y-68.
X102.Y-73.
X102.Y-78.
X103.Y-89.
X103.Y-94.
X103.Y-99.
X103.Y-103.5
X104.Y-81.
X105.Y-30.
X105.Y-84.
X105.Y-116.
X105.Y-120.
X105.Y-124.
X105.Y-129.
X109.Y-63.
X109.Y-68.
X109.Y-73.
X109.Y-78.
X109.Y-81.
X109.Y-84.
X109.Y-89.
X109.Y-94.
X109.Y-99.
X109.Y-103.5
X110.Y-116.
X110.Y-120.
X110.Y-123.
X110.Y-129.
X111.Y-30.
X111.Y-39.
X111.Y-43.
X111.3Y-80.7
X112.1Y-78.6
X114.25Y-62.8
X114.25Y-68.25
X114.25Y-74.7
X115.Y-29.4
X115.Y-43.
X115.Y-53.
X115.Y-61.
X115.Y-96.
X115.Y-101.
X115.Y-106.
X115.Y-111.
X115.Y-116.
X115.Y-129.
X116.45Y-64.6
X116.45Y-91.55
X118.4Y-60.8
X119.5Y-64.6
X119.5Y-91.55
X119.8Y-59.4
X120.Y-29.4
X120.Y-93.
X120.Y-96.
X120.Y-106.
X120.Y-111.
X120.Y-116.
X120.2Y-101.
X122.Y-129.
X122.8Y-53.7
X123.5Y-69.
X124.Y-60.5
X124.4Y-54.65
X125.Y-29.4
X125.Y-93.
X125.Y-96.
X125.Y-101.
X125.Y-106.
X125.Y-111.
X125.Y-116.
X125.4Y-35.
X125.4Y-39.7
X125.4Y-44.7
X125.4Y-51.7
X127.Y-67.5
X127.Y-129.
X128.Y-53.7
X129.Y-56.5
X129.Y-93.
X129.85Y-90.
X130.Y-29.4
X130.Y-101.
X130.Y-106.
X130.Y-111.
X130.Y-116.
X130.85Y-97.2
X131.6Y-68.7
X132.Y-119.
X132.Y-129.
X132.2Y-89.9
X132.3Y-58.65
X133.4Y-71.
X134.85Y-77.7
X134.85Y-80.15
X135.Y-29.4
X135.Y-63.2
X135.Y-71.75
X135.Y-85.1
X135.Y-95.2
X136.Y-40.
X136.Y-51.
X136.Y-57.
X137.Y-119.
X137.Y-124.
X137.Y-129.
X138.Y-101.
X138.Y-106.
X138.Y-111.
X138.Y-116.
X139.Y-57.
X140.Y-30.
X140.Y-40.
X140.Y-46.
X140.Y-81.
X141.5Y-72.2
X142.Y-119.
X142.Y-129.
X144.Y-34.
X144.Y-39.
X144.Y-54.
X144.Y-59.
X144.Y-64.
X144.Y-69.
X144.Y-74.
X144.Y-79.
X144.Y-84.
X144.Y-89.
X144.Y-94.
X145.Y-30.
X146.Y-125.
X147.Y-119.
X149.Y-34.
X149.Y-39.
X149.Y-49.
X149.Y-54.
X149.Y-59.
X149.Y-64.
X149.Y-69.
X149.Y-74.
X149.Y-79.
X149.Y-84.
X149.Y-89.
X149.Y-94.
X149.Y-116.
X149.Y-121.
T2
X111.Y-35.3
X115.Y-46.2
X116.Y-35.3
X118.5Y-46.2
X122.9Y-41.4
X127.9Y-41.4
X132.3Y-46.2
X134.8Y-35.3
X135.8Y-46.2
X139.8Y-35.3
T3
X103.81Y-46.815
X103.81Y-49.355
X103.81Y-51.895
X103.81Y-106.63
X103.81Y-109.17
X103.81Y-111.71
X121.4Y-126.
X122.86Y-32.15
X123.94Y-126.
X125.4Y-32.15
X126.86Y-126.
X127.94Y-32.15
X129.4Y-126.
T4
X146.355Y-46.22
X146.355Y-51.22
X146.355Y-107.18
X146.355Y-112.18
T5
X125.4Y-73.2
X125.4Y-79.2
X125.4Y-85.3
T6
X100.Y-28.4
X100.Y-130.
X104.445Y-58.245
X146.355Y-100.155
X150.8Y-28.4
X150.8Y-130.
T0
M30
