G04 #@! TF.FileFunction,Soldermask,Top*
%FSLAX46Y46*%
G04 Gerber Fmt 4.6, Leading zero omitted, Abs format (unit mm)*
G04 Created by KiCad (PCBNEW 4.0.2-stable) date 08.07.2018 23:17:36*
%MOMM*%
G01*
G04 APERTURE LIST*
%ADD10C,0.100000*%
%ADD11C,4.800000*%
%ADD12C,5.600000*%
%ADD13C,6.800000*%
%ADD14R,1.600000X1.150000*%
%ADD15C,1.700000*%
%ADD16R,1.700000X1.700000*%
%ADD17R,1.150000X1.600000*%
%ADD18R,1.900000X3.400000*%
%ADD19R,2.400000X1.000000*%
%ADD20R,6.800000X18.400000*%
%ADD21R,1.650000X1.900000*%
%ADD22R,1.600000X1.300000*%
%ADD23R,1.300000X1.600000*%
%ADD24R,2.100000X1.500000*%
%ADD25R,1.900000X1.900000*%
%ADD26C,1.900000*%
%ADD27O,1.900000X1.900000*%
%ADD28C,2.700000*%
%ADD29R,2.000000X2.400000*%
G04 APERTURE END LIST*
D10*
D11*
X125400000Y-85300000D03*
X125400000Y-73200000D03*
D12*
X146355000Y-100155000D03*
X104445000Y-58245000D03*
D13*
X150800000Y-28400000D03*
X100000000Y-28400000D03*
X100000000Y-130000000D03*
X150800000Y-130000000D03*
D14*
X122050000Y-35000000D03*
X123950000Y-35000000D03*
X126850000Y-35000000D03*
X128750000Y-35000000D03*
D15*
X115000000Y-46200000D03*
D16*
X118500000Y-46200000D03*
D15*
X132300000Y-46200000D03*
D16*
X135800000Y-46200000D03*
X116000000Y-35300000D03*
D15*
X111000000Y-35300000D03*
D16*
X139800000Y-35300000D03*
D15*
X134800000Y-35300000D03*
D14*
X107050000Y-112650000D03*
X108950000Y-112650000D03*
X107050000Y-52850000D03*
X108950000Y-52850000D03*
X107050000Y-105700000D03*
X108950000Y-105700000D03*
X107050000Y-45850000D03*
X108950000Y-45850000D03*
D16*
X122900000Y-41400000D03*
D15*
X127900000Y-41400000D03*
D17*
X113200000Y-101450000D03*
X113200000Y-103350000D03*
X111000000Y-101450000D03*
X111000000Y-103350000D03*
X111000000Y-56950000D03*
X111000000Y-55050000D03*
X113200000Y-56950000D03*
X113200000Y-55050000D03*
D14*
X113050000Y-99350000D03*
X111150000Y-99350000D03*
X111150000Y-59050000D03*
X113050000Y-59050000D03*
D17*
X115350000Y-91550000D03*
X115350000Y-93450000D03*
X115350000Y-64600000D03*
X115350000Y-62700000D03*
X118400000Y-91550000D03*
X118400000Y-93450000D03*
X118400000Y-64600000D03*
X118400000Y-62700000D03*
X120600000Y-66500000D03*
X120600000Y-64600000D03*
D18*
X117800000Y-125298980D03*
X117800000Y-121301020D03*
D17*
X124600000Y-66500000D03*
X124600000Y-64600000D03*
X138000000Y-79150000D03*
X138000000Y-77250000D03*
D14*
X137050000Y-83900000D03*
X138950000Y-83900000D03*
X138950000Y-74500000D03*
X137050000Y-74500000D03*
D17*
X135000000Y-66450000D03*
X135000000Y-64550000D03*
X135000000Y-91950000D03*
X135000000Y-93850000D03*
X135000000Y-59950000D03*
X135000000Y-61850000D03*
X135000000Y-98450000D03*
X135000000Y-96550000D03*
X137150000Y-93850000D03*
X137150000Y-91950000D03*
X137150000Y-64550000D03*
X137150000Y-66450000D03*
X137150000Y-96550000D03*
X137150000Y-98450000D03*
X137150000Y-61850000D03*
X137150000Y-59950000D03*
D19*
X118750000Y-84700000D03*
X118750000Y-83700000D03*
X118750000Y-82700000D03*
X118750000Y-81700000D03*
X118750000Y-80700000D03*
X118750000Y-79700000D03*
X118750000Y-78700000D03*
X118750000Y-77700000D03*
X118750000Y-76700000D03*
X118750000Y-75700000D03*
X118750000Y-74700000D03*
X118750000Y-73700000D03*
X132050000Y-84700000D03*
X132050000Y-83700000D03*
X132050000Y-82700000D03*
X132050000Y-81700000D03*
X132050000Y-80700000D03*
X132050000Y-79700000D03*
X132050000Y-78700000D03*
X132050000Y-77700000D03*
X132050000Y-76700000D03*
X132050000Y-75700000D03*
X132050000Y-74700000D03*
X132050000Y-73700000D03*
D20*
X125400000Y-79200000D03*
D21*
X122800000Y-49750000D03*
X122800000Y-52250000D03*
X128000000Y-49750000D03*
X128000000Y-52250000D03*
D22*
X109100000Y-110700000D03*
X106900000Y-110700000D03*
X109100000Y-107650000D03*
X106900000Y-107650000D03*
X109100000Y-50900000D03*
X106900000Y-50900000D03*
X109100000Y-47900000D03*
X106900000Y-47900000D03*
D23*
X122600000Y-66500000D03*
X122600000Y-64300000D03*
X122900000Y-122600000D03*
X122900000Y-120400000D03*
X125300000Y-122600000D03*
X125300000Y-120400000D03*
X127600000Y-122600000D03*
X127600000Y-120400000D03*
D22*
X141300000Y-95200000D03*
X139100000Y-95200000D03*
X141300000Y-63200000D03*
X139100000Y-63200000D03*
D24*
X132900000Y-126400000D03*
X132900000Y-122600000D03*
D25*
X122860000Y-32150000D03*
D26*
X125400000Y-32150000D03*
X127940000Y-32150000D03*
D25*
X103810000Y-106630000D03*
D26*
X103810000Y-109170000D03*
X103810000Y-111710000D03*
D25*
X103810000Y-46815000D03*
D26*
X103810000Y-49355000D03*
X103810000Y-51895000D03*
D25*
X121400000Y-126000000D03*
D27*
X123940000Y-126000000D03*
D25*
X126860000Y-126000000D03*
D27*
X129400000Y-126000000D03*
D28*
X146355000Y-112180000D03*
X146355000Y-107180000D03*
X146355000Y-51220000D03*
X146355000Y-46220000D03*
D29*
X132650000Y-65200000D03*
X132650000Y-61200000D03*
X132650000Y-93200000D03*
X132650000Y-97200000D03*
D11*
X125400000Y-79200000D03*
M02*
